<?xml version="1.0" encoding="UTF-8"?>
<svg version="1.1" xmlns="http://www.w3.org/2000/svg" width="711" height="198">
<path d="M0 0 C7.92 0 15.84 0 24 0 C25.87912514 1.87912514 25.12623495 5.10565818 25.12698364 7.60534668 C25.12854363 8.30378299 25.13010362 9.00221931 25.13171089 9.72182035 C25.13572316 12.07954186 25.13253038 14.43719981 25.12939453 16.79492188 C25.13074847 18.47815489 25.13252836 20.1613876 25.13470459 21.84461975 C25.13927978 26.42919955 25.13748901 31.01375696 25.1343255 35.59833717 C25.13180234 40.38517952 25.13413932 45.17201989 25.13571167 49.9588623 C25.1375335 57.99910834 25.13512672 66.0393452 25.13037109 74.07958984 C25.12492845 83.38916048 25.1266911 92.69870922 25.1321975 102.00827932 C25.13672826 109.9861703 25.13737936 117.96405466 25.13475883 125.94194651 C25.13319585 130.71341212 25.13300285 135.48486743 25.13629532 140.2563324 C25.1391735 144.74107837 25.13719932 149.22579597 25.13140106 153.71053886 C25.13007318 155.36137787 25.13046806 157.01221925 25.13266373 158.66305733 C25.13537413 160.90695544 25.13199548 163.15076118 25.12698364 165.39465332 C25.1264181 167.28284161 25.1264181 167.28284161 25.12584114 169.20917511 C25 172 25 172 24 173 C22.30441274 173.09932153 20.60474253 173.13080007 18.90625 173.1328125 C17.87628906 173.13410156 16.84632812 173.13539063 15.78515625 173.13671875 C14.15900391 173.13091797 14.15900391 173.13091797 12.5 173.125 C11.41589844 173.12886719 10.33179687 173.13273438 9.21484375 173.13671875 C8.18488281 173.13542969 7.15492187 173.13414062 6.09375 173.1328125 C5.14177734 173.13168457 4.18980469 173.13055664 3.20898438 173.12939453 C1 173 1 173 0 172 C-0.1584265 169.9291528 -0.25124422 167.85321971 -0.31640625 165.77734375 C-0.35830078 164.51728516 -0.40019531 163.25722656 -0.44335938 161.95898438 C-0.48317596 160.61849264 -0.52288814 159.2779978 -0.5625 157.9375 C-0.60568042 156.59308477 -0.64929456 155.2486834 -0.69335938 153.90429688 C-0.79985358 150.6029766 -0.9018646 147.30157764 -1 144 C-1.58442871 145.10952026 -1.58442871 145.10952026 -2.18066406 146.24145508 C-2.70370117 147.22009521 -3.22673828 148.19873535 -3.765625 149.20703125 C-4.53567871 150.65686401 -4.53567871 150.65686401 -5.32128906 152.13598633 C-7.68812607 156.17399751 -10.51097479 159.86167578 -14 163 C-14.66 163 -15.32 163 -16 163 C-16 163.66 -16 164.32 -16 165 C-29.50897226 174.93795295 -44.6934051 176.25196457 -60.90625 174.7265625 C-75.85072454 172.15494838 -88.02712365 164.07957489 -97 152 C-110.09134684 131.09057429 -111.54400028 106.02264962 -106.14453125 82.23046875 C-105.24984452 79.38573013 -104.21668495 76.72040473 -103 74 C-102.67515625 73.17113281 -102.3503125 72.34226562 -102.015625 71.48828125 C-96.64393672 59.09058041 -85.43620454 48.73458233 -73.25 43.25 C-58.95739964 37.65880665 -41.83241752 36.88671956 -27.37890625 42.375 C-14.0336908 48.319329 -8.46932658 56.19544015 -1 69 C-0.67 46.23 -0.34 23.46 0 0 Z M-73.43359375 73.984375 C-83.79059951 87.31159438 -83.0416624 103.98183652 -82 120 C-80.54743081 131.1712813 -74.67454822 139.36959442 -66.20703125 146.4609375 C-56.55911222 153.18886688 -44.35547917 154.27383274 -32.9765625 152.5390625 C-21.02817876 149.92823315 -12.68524285 144.27111138 -5.7890625 134.23828125 C2.04861921 120.65493061 1.31624506 102.62579073 -2.40917969 87.93066406 C-5.31430312 78.43739293 -11.58766926 70.56615587 -20.2265625 65.76171875 C-37.92724027 57.39799643 -59.61942811 59.24071794 -73.43359375 73.984375 Z " fill="#0F92AE" transform="translate(110,20)"/>
<path d="M0 0 C0.60328125 0.47566406 1.2065625 0.95132813 1.828125 1.44140625 C10.69966798 9.09411112 16.77912326 23.56485745 18 35 C18.31180904 41.32151808 18.36105044 47.64829788 18.30078125 53.9765625 C18.29216064 54.89518066 18.28354004 55.81379883 18.2746582 56.76025391 C18 59 18 59 16 61 C12.89582582 61.18848472 9.88146099 61.25160454 6.77685547 61.22705078 C5.8207135 61.22734283 4.86457153 61.22763489 3.87945557 61.22793579 C0.70860828 61.22653876 -2.46200609 61.21095999 -5.6328125 61.1953125 C-7.82713696 61.1915837 -10.02146308 61.1887361 -12.21578979 61.18673706 C-17.99937514 61.17909015 -23.78286049 61.15943259 -29.56640625 61.1373291 C-35.46482999 61.11689343 -41.36326984 61.10774023 -47.26171875 61.09765625 C-58.84118984 61.07618769 -70.42058661 61.04203902 -82 61 C-81.23111171 63.72876271 -80.45394609 66.45470208 -79.671875 69.1796875 C-79.45644043 69.94756592 -79.24100586 70.71544434 -79.01904297 71.5065918 C-75.66351166 83.12621044 -69.27131217 89.94484514 -58.75 95.8125 C-44.07472 100.459672 -27.71532117 100.92431782 -13.6875 94.1875 C-5.89604825 90.01530326 -1.05888567 85.22954229 4 78 C7.44346215 81.38219058 10.73430278 84.83413702 13.875 88.5 C14.67679687 89.4178125 15.47859375 90.335625 16.3046875 91.28125 C18 94 18 94 17.94921875 96.59765625 C14.14959075 106.21399871 3.54961687 112.69356265 -5.40234375 116.90625 C-25.03191979 125.17133465 -47.79167702 124.62627218 -67.57421875 117.3984375 C-83.16924503 111.03239484 -94.4789821 101.16920278 -102 86 C-103.6558144 82.05876512 -104.93196559 78.13722805 -106 74 C-106.22429687 73.154375 -106.44859375 72.30875 -106.6796875 71.4375 C-110.77802903 53.02303397 -108.20450388 32.21338042 -98.21484375 16.125 C-96.24871538 13.31066119 -94.18694434 10.64588339 -92 8 C-91.35546875 7.21753906 -90.7109375 6.43507813 -90.046875 5.62890625 C-68.00647188 -18.64077428 -24.514321 -21.71132693 0 0 Z M-73.3203125 21.6484375 C-77.42863511 27.40008915 -80 32.91581337 -80 40 C-55.91 40 -31.82 40 -7 40 C-7.99480871 30.05191291 -9.73036546 21.61572356 -17.1875 14.5 C-34.23745848 2.05316206 -59.97710943 5.81450319 -73.3203125 21.6484375 Z " fill="#2979BB" transform="translate(260,73)"/>
<path d="M0 0 C9.90360009 9.51320922 13.0809551 22.6444401 13.72241211 36.02261353 C13.75936279 39.59647703 13.73577861 43.16456573 13.6875 46.73828125 C13.67592828 48.72187005 13.66436791 50.70545899 13.6534729 52.68905163 C13.63182061 56.12611616 13.59674369 59.56304166 13.5625 63 C13.52157197 67.12711059 13.48317938 71.25413746 13.46044922 75.38139343 C13.4454731 77.93909347 13.4214751 80.4967612 13.38720703 83.05427551 C13.33105018 91.56720274 13.33105018 91.56720274 15.5625 99.6875 C18.44665883 101.12957941 20.97971528 100.78144887 24.1875 100.75 C25.97027344 100.73646484 25.97027344 100.73646484 27.7890625 100.72265625 C29.16191406 100.70525391 29.16191406 100.70525391 30.5625 100.6875 C32.28580907 107.78076321 32.8119783 114.39718976 32.5625 121.6875 C22.12953791 125.416729 13.84191957 125.87597037 3.33203125 122.00390625 C-2.94266898 119.02143238 -6.14924579 114.91779756 -8.75 108.5625 C-9.32245365 106.9409797 -9.88508199 105.31595497 -10.4375 103.6875 C-11.0957367 102.01748603 -11.7601374 100.34984838 -12.4375 98.6875 C-12.78941406 99.47253906 -13.14132812 100.25757813 -13.50390625 101.06640625 C-19.08452707 112.94161765 -25.37486201 118.47231954 -37.125 123.9375 C-50.55413483 128.29289508 -67.80491747 126.76444632 -80.25 120.4375 C-88.94817667 115.11496951 -93.71975319 108.15652628 -97.4375 98.6875 C-100.06775868 86.7245765 -99.19052688 74.6709589 -92.9375 64.0625 C-83.25984592 50.63712694 -67.10110754 46.80141092 -51.65820312 44.26171875 C-50.18893688 44.0277976 -48.71953475 43.79472839 -47.25 43.5625 C-28.9825945 41.89485282 -28.9825945 41.89485282 -14.4375 32.6875 C-12.4368294 28.68615879 -13.13816813 24.64162033 -14.4375 20.5 C-17.68803937 15.92892901 -22.24304812 14.41898396 -27.4375 12.6875 C-43.53358759 11.56526282 -56.9961365 13.31618328 -70.1171875 23.6171875 C-73.26104363 26.42231166 -75.86618915 29.35174539 -78.4375 32.6875 C-80.93987731 32.31026896 -82.15733099 31.99033111 -83.90136719 30.10522461 C-84.34125977 29.44014893 -84.78115234 28.77507324 -85.234375 28.08984375 C-85.95947266 27.01186523 -85.95947266 27.01186523 -86.69921875 25.91210938 C-87.43591797 24.77999023 -87.43591797 24.77999023 -88.1875 23.625 C-88.69410156 22.86638672 -89.20070313 22.10777344 -89.72265625 21.32617188 C-90.97133068 19.45316023 -92.20895051 17.5737482 -93.4375 15.6875 C-86.36111912 2.94108524 -72.15464993 -4.25911342 -58.5625 -8.25 C-39.89156579 -12.59078351 -15.45150539 -12.62641672 0 0 Z M-13.4375 54.6875 C-14.55125 55.2753125 -15.665 55.863125 -16.8125 56.46875 C-22.12026277 59.25173913 -27.58136632 60.14180944 -33.4375 61.1875 C-35.66578152 61.61502008 -37.89364799 62.04470911 -40.12109375 62.4765625 C-41.19987793 62.68313477 -42.27866211 62.88970703 -43.39013672 63.10253906 C-58.66266791 65.47484613 -58.66266791 65.47484613 -70.4375 74.6875 C-73.26972902 80.4652472 -73.55511203 86.86475885 -71.75 93.0390625 C-69.18603331 98.74388839 -65.5569652 101.43608664 -59.75 103.765625 C-49.34682195 106.66084908 -37.05680112 105.46727695 -27.4375 100.6875 C-20.16766763 96.3146685 -15.95445752 88.8771922 -13.125 81.0625 C-11.38840665 72.53740535 -11.32768614 64.37499649 -11.4375 55.6875 C-12.0975 55.3575 -12.7575 55.0275 -13.4375 54.6875 Z " fill="#4E54CF" transform="translate(500.4375,69.3125)"/>
<path d="M0 0 C14.51982594 15.01017654 13.80442836 36.50539628 13.77734375 55.91796875 C13.77801883 57.63425714 13.77899055 59.35054543 13.78024292 61.0668335 C13.7817087 64.64384888 13.77960052 68.22083912 13.77490234 71.79785156 C13.76918837 76.36943676 13.7725017 80.94096345 13.77847481 85.51254654 C13.782096 89.04881223 13.78093497 92.58506414 13.77834702 96.12133026 C13.77768296 97.80694333 13.77848784 99.49255767 13.78082657 101.17816925 C13.78338068 103.53450317 13.77947458 105.89074333 13.77392578 108.24707031 C13.77595001 108.93397949 13.77797424 109.62088867 13.78005981 110.32861328 C13.76123655 114.66777872 13.34143835 118.75770145 12.64453125 123.02734375 C8.46624486 124.42010588 4.52029091 124.21159281 0.14453125 124.21484375 C-0.72300781 124.22708984 -1.59054687 124.23933594 -2.484375 124.25195312 C-3.31839844 124.25388672 -4.15242187 124.25582031 -5.01171875 124.2578125 C-5.77291016 124.26192139 -6.53410156 124.26603027 -7.31835938 124.27026367 C-9.35546875 124.02734375 -9.35546875 124.02734375 -12.35546875 122.02734375 C-12.65575652 119.23973195 -12.76168079 116.67131738 -12.74023438 113.88085938 C-12.74560715 113.03831604 -12.75097992 112.19577271 -12.7565155 111.32769775 C-12.76631662 109.49325355 -12.76923064 107.65876286 -12.76615906 105.82429504 C-12.76168917 102.91433598 -12.77566152 100.00498784 -12.79455566 97.09509277 C-12.83141694 90.90585333 -12.84504214 84.71667677 -12.85546875 78.52734375 C-12.86756667 71.38150541 -12.88931116 64.23596216 -12.93547058 57.09025574 C-12.94897379 54.23538411 -12.9448799 51.38089166 -12.94006348 48.52600098 C-12.81644362 32.22440328 -12.81644362 32.22440328 -20.6796875 18.4296875 C-26.71753055 13.37704028 -34.65322396 12.67030287 -42.2421875 12.7421875 C-51.88357994 13.62527614 -60.67475942 17.02999336 -67.41796875 24.02734375 C-74.40048843 32.53499273 -76.49689436 42.93358998 -76.51318359 53.65332031 C-76.51826431 54.39225525 -76.52334503 55.13119019 -76.52857971 55.89251709 C-76.53922873 57.4868275 -76.54787005 59.08115235 -76.55469894 60.6754837 C-76.56654243 63.19696239 -76.58600409 65.71827399 -76.6078186 68.23968506 C-76.66928716 75.40485126 -76.72363031 82.5699939 -76.75683594 89.73535156 C-76.77772442 94.12552892 -76.81296534 98.51539045 -76.85759354 102.90538788 C-76.87178426 104.5783493 -76.88048288 106.25136646 -76.88364792 107.92438507 C-76.88853098 110.25624485 -76.91161455 112.58725658 -76.93896484 114.91894531 C-76.93595871 115.61298462 -76.93295258 116.30702393 -76.92985535 117.02209473 C-76.96347046 118.94195557 -76.96347046 118.94195557 -77.35546875 122.02734375 C-80.58286137 124.17893883 -81.45464854 124.27575312 -85.171875 124.2578125 C-86.5650293 124.25491211 -86.5650293 124.25491211 -87.98632812 124.25195312 C-88.95376953 124.23970703 -89.92121094 124.22746094 -90.91796875 124.21484375 C-91.88927734 124.21419922 -92.86058594 124.21355469 -93.86132812 124.21289062 C-101.0746036 124.16777632 -101.0746036 124.16777632 -103.35546875 123.02734375 C-103.35546875 80.12734375 -103.35546875 37.22734375 -103.35546875 -6.97265625 C-100.92655693 -8.18711216 -99.34827432 -8.10189823 -96.63671875 -8.10546875 C-95.70472656 -8.10675781 -94.77273438 -8.10804687 -93.8125 -8.109375 C-92.34876953 -8.10357422 -92.34876953 -8.10357422 -90.85546875 -8.09765625 C-89.87964844 -8.10152344 -88.90382813 -8.10539062 -87.8984375 -8.109375 C-86.50044922 -8.10744141 -86.50044922 -8.10744141 -85.07421875 -8.10546875 C-84.21763672 -8.10434082 -83.36105469 -8.10321289 -82.47851562 -8.10205078 C-80.35546875 -7.97265625 -80.35546875 -7.97265625 -78.35546875 -6.97265625 C-78.02546875 2.92734375 -77.69546875 12.82734375 -77.35546875 23.02734375 C-76.36546875 20.90296875 -75.37546875 18.77859375 -74.35546875 16.58984375 C-68.81626341 5.27680985 -60.83851759 -3.48875182 -48.73046875 -7.78515625 C-32.61619893 -12.5083043 -13.21886263 -11.07052343 0 0 Z " fill="#6D34DF" transform="translate(697.35546875,68.97265625)"/>
<path d="M0 0 C2.26999271 2.20728573 4.19784053 4.55049579 6.12109375 7.0625 C4.83053639 9.81217731 3.41025079 12.14123302 1.51953125 14.515625 C1.0296875 15.134375 0.53984375 15.753125 0.03515625 16.390625 C-0.47273438 17.02484375 -0.980625 17.6590625 -1.50390625 18.3125 C-2.27734375 19.28703125 -2.27734375 19.28703125 -3.06640625 20.28125 C-4.33404804 21.87753967 -5.60604986 23.47036526 -6.87890625 25.0625 C-10.67699738 23.31138009 -12.91645485 21.0249514 -15.87890625 18.0625 C-25.31310559 9.99968804 -36.80184686 8.42254712 -48.87890625 9.0625 C-55.35677148 9.80632464 -60.5330998 11.2758871 -65.87890625 15.0625 C-68.7037395 19.45982376 -68.26323377 24.01717914 -67.87890625 29.0625 C-67.38378545 32.02226672 -67.38378545 32.02226672 -65.87890625 34.0625 C-63.74320744 35.32033601 -63.74320744 35.32033601 -60.87890625 36.0625 C-59.64914062 36.52527344 -58.419375 36.98804688 -57.15234375 37.46484375 C-49.84382029 39.9096301 -42.1383316 40.70668851 -34.53442383 41.78930664 C-18.79427571 44.05419928 -2.97484319 47.66243824 7.12109375 61.0625 C12.10653809 70.8667021 13.84731277 81.27971824 11.4375 92.14453125 C7.8000556 102.9361194 0.34941513 112.16197139 -9.73828125 117.60546875 C-29.31291828 126.25177863 -52.6516596 124.86993473 -72.69140625 118.3125 C-82.20246512 114.5394003 -95.29798973 107.31322104 -99.98046875 97.83203125 C-99.81239624 93.24882308 -97.16218413 90.08062608 -94.62890625 86.375 C-94.12488281 85.60349609 -93.62085938 84.83199219 -93.1015625 84.03710938 C-89.32206019 78.35793596 -89.32206019 78.35793596 -85.87890625 76.0625 C-84.77095703 77.34833984 -84.77095703 77.34833984 -83.640625 78.66015625 C-74.82375269 88.68425734 -66.24496133 96.08432373 -52.87890625 99.0625 C-51.93015625 99.289375 -50.98140625 99.51625 -50.00390625 99.75 C-40.19829596 100.73056103 -28.33194707 101.4055801 -19.81640625 95.6875 C-16.33767034 92.57884238 -15.04784538 90.8686581 -14.61328125 86.22265625 C-14.62101562 84.68931641 -14.62101562 84.68931641 -14.62890625 83.125 C-14.62375 82.10535156 -14.61859375 81.08570313 -14.61328125 80.03515625 C-14.88615973 76.98132502 -15.52203938 74.80063782 -16.87890625 72.0625 C-18.54164824 70.81125954 -18.54164824 70.81125954 -20.87890625 70.0625 C-21.95140625 69.588125 -23.02390625 69.11375 -24.12890625 68.625 C-30.08160467 66.43247756 -36.37294464 65.58917054 -42.59472656 64.47607422 C-76.32700539 58.3684983 -76.32700539 58.3684983 -88.25390625 45.5 C-94.37605754 36.31677306 -95.31211308 26.24878311 -93.41796875 15.4296875 C-90.62438373 5.99722984 -84.0577825 -0.77056739 -75.87890625 -5.9375 C-53.54119034 -17.91431789 -19.63221512 -16.4208747 0 0 Z " fill="#3C66C5" transform="translate(382.87890625,71.9375)"/>
<path d="M0 0 C7.92 0 15.84 0 24 0 C25.87912514 1.87912514 25.12623495 5.10565818 25.12698364 7.60534668 C25.12932363 8.65300115 25.12932363 8.65300115 25.13171089 9.72182035 C25.13572316 12.07954186 25.13253038 14.43719981 25.12939453 16.79492188 C25.13074847 18.47815489 25.13252836 20.1613876 25.13470459 21.84461975 C25.13927978 26.42919955 25.13748901 31.01375696 25.1343255 35.59833717 C25.13180234 40.38517952 25.13413932 45.17201989 25.13571167 49.9588623 C25.1375335 57.99910834 25.13512672 66.0393452 25.13037109 74.07958984 C25.12492845 83.38916048 25.1266911 92.69870922 25.1321975 102.00827932 C25.13672826 109.9861703 25.13737936 117.96405466 25.13475883 125.94194651 C25.13319585 130.71341212 25.13300285 135.48486743 25.13629532 140.2563324 C25.1391735 144.74107837 25.13719932 149.22579597 25.13140106 153.71053886 C25.13007318 155.36137787 25.13046806 157.01221925 25.13266373 158.66305733 C25.13537413 160.90695544 25.13199548 163.15076118 25.12698364 165.39465332 C25.1264181 167.28284161 25.1264181 167.28284161 25.12584114 169.20917511 C25 172 25 172 24 173 C22.30441274 173.09932153 20.60474253 173.13080007 18.90625 173.1328125 C17.87628906 173.13410156 16.84632812 173.13539063 15.78515625 173.13671875 C14.15900391 173.13091797 14.15900391 173.13091797 12.5 173.125 C11.41589844 173.12886719 10.33179688 173.13273438 9.21484375 173.13671875 C8.18488281 173.13542969 7.15492187 173.13414062 6.09375 173.1328125 C5.14177734 173.13168457 4.18980469 173.13055664 3.20898438 173.12939453 C1 173 1 173 0 172 C-0.1584265 169.9291528 -0.25124422 167.85321971 -0.31640625 165.77734375 C-0.35830078 164.51728516 -0.40019531 163.25722656 -0.44335938 161.95898438 C-0.48317596 160.61849264 -0.52288814 159.2779978 -0.5625 157.9375 C-0.60568042 156.59308477 -0.64929456 155.2486834 -0.69335938 153.90429688 C-0.79985358 150.6029766 -0.9018646 147.30157764 -1 144 C-1.58442871 145.10952026 -1.58442871 145.10952026 -2.18066406 146.24145508 C-2.70370117 147.22009521 -3.22673828 148.19873535 -3.765625 149.20703125 C-4.27899414 150.17358643 -4.79236328 151.1401416 -5.32128906 152.13598633 C-7.68812607 156.17399751 -10.51097479 159.86167578 -14 163 C-14.66 163 -15.32 163 -16 163 C-16 163.66 -16 164.32 -16 165 C-21.41176471 169 -21.41176471 169 -24 169 C-23.53199289 164.94393835 -23.12046792 161.53411321 -21 158 C-18.61435923 158.57584432 -16.33317216 159.22227595 -14 160 C-14.99 155.05 -14.99 155.05 -16 150 C-21.44876935 150 -22.2402346 150.44911046 -26 154 C-26.33 154.66 -26.66 155.32 -27 156 C-28.64363134 156.72159424 -30.31050386 157.39351421 -32 158 C-32 157.34 -32 156.68 -32 156 C-33.17369141 155.92652344 -33.17369141 155.92652344 -34.37109375 155.8515625 C-35.38300781 155.77679688 -36.39492187 155.70203125 -37.4375 155.625 C-38.44683594 155.55539063 -39.45617187 155.48578125 -40.49609375 155.4140625 C-41.32238281 155.27742187 -42.14867188 155.14078125 -43 155 C-43.33 154.34 -43.66 153.68 -44 153 C-42.82824219 152.85304687 -41.65648438 152.70609375 -40.44921875 152.5546875 C-28.03168385 150.84689613 -17.55045677 148.37817651 -9.42578125 138.04296875 C-0.48299178 125.22905397 0.39129221 109.09197727 -2.0625 94.0625 C-4.12238511 83.14768377 -8.83413361 74.70340497 -18.08203125 68.3046875 C-18.71496094 67.87414062 -19.34789063 67.44359375 -20 67 C-20.66 66.34 -21.32 65.68 -22 65 C-21.01 65 -20.02 65 -19 65 C-18.67 64.34 -18.34 63.68 -18 63 C-17.5875 63.78375 -17.175 64.5675 -16.75 65.375 C-15.05684925 68.38502449 -15.05684925 68.38502449 -11 70 C-10.67 67.03 -10.34 64.06 -10 61 C-11.32 61 -12.64 61 -14 61 C-13.67 59.02 -13.34 57.04 -13 55 C-13.61875 54.731875 -14.2375 54.46375 -14.875 54.1875 C-17 53 -17 53 -19 50 C-20.32 50 -21.64 50 -23 50 C-23.495 47.525 -23.495 47.525 -24 45 C-15.28520565 47.45103591 -8.8335011 55.76810341 -4 63 C-3.01 64.98 -2.02 66.96 -1 69 C-0.67 46.23 -0.34 23.46 0 0 Z " fill="#1B86B4" transform="translate(110,20)"/>
<path d="M0 0 C-1.6282396 1.94871851 -2.50910082 2.91117062 -5.05078125 3.37109375 C-6.17033203 3.40396484 -6.17033203 3.40396484 -7.3125 3.4375 C-11.87927692 3.80638343 -14.31541076 5.19650818 -18 8 C-19.22427981 8.63451921 -20.45362376 9.25934985 -21.6875 9.875 C-25.36799496 12.23607224 -26.44676069 13.97985119 -28 18 C-27.34 18 -26.68 18 -26 18 C-26.33 18.639375 -26.66 19.27875 -27 19.9375 C-28.07271225 21.76794567 -28.07271225 21.76794567 -28 23 C-27.46375 22.835 -26.9275 22.67 -26.375 22.5 C-23.54908644 21.90507083 -20.88050068 22 -18 22 C-17.505 21.505 -17.505 21.505 -17 21 C-14.32941149 20.85884839 -11.67567762 20.95752893 -9 21 C-11.21445873 22.17577214 -13.36779649 23.13083047 -15.734375 23.97265625 C-24.74293889 27.2283419 -30.15202964 31.46069765 -34.5625 40.0390625 C-37.87423265 47.6221776 -39.14515881 54.36301361 -39.15771484 62.62597656 C-39.16279556 63.3649115 -39.16787628 64.10384644 -39.17311096 64.86517334 C-39.18375998 66.45948375 -39.1924013 68.0538086 -39.19923019 69.64813995 C-39.21107368 72.16961864 -39.23053534 74.69093024 -39.25234985 77.21234131 C-39.31381841 84.37750751 -39.36816156 91.54265015 -39.40136719 98.70800781 C-39.42225567 103.09818517 -39.45749659 107.4880467 -39.50212479 111.87804413 C-39.51631551 113.55100555 -39.52501413 115.22402271 -39.52817917 116.89704132 C-39.53306223 119.2289011 -39.5561458 121.55991283 -39.58349609 123.89160156 C-39.58048996 124.58564087 -39.57748383 125.27968018 -39.5743866 125.99475098 C-39.60800171 127.91461182 -39.60800171 127.91461182 -40 131 C-43.22739262 133.15159508 -44.09917979 133.24840937 -47.81640625 133.23046875 C-49.20956055 133.22756836 -49.20956055 133.22756836 -50.63085938 133.22460938 C-51.59830078 133.21236328 -52.56574219 133.20011719 -53.5625 133.1875 C-54.53380859 133.18685547 -55.50511719 133.18621094 -56.50585938 133.18554688 C-63.71913485 133.14043257 -63.71913485 133.14043257 -66 132 C-66 89.1 -66 46.2 -66 2 C-63.57108818 0.78554409 -61.99280557 0.87075802 -59.28125 0.8671875 C-58.34925781 0.86589844 -57.41726563 0.86460938 -56.45703125 0.86328125 C-54.99330078 0.86908203 -54.99330078 0.86908203 -53.5 0.875 C-52.52417969 0.87113281 -51.54835938 0.86726563 -50.54296875 0.86328125 C-49.14498047 0.86521484 -49.14498047 0.86521484 -47.71875 0.8671875 C-46.86216797 0.86831543 -46.00558594 0.86944336 -45.12304688 0.87060547 C-43 1 -43 1 -41 2 C-40.67 11.9 -40.34 21.8 -40 32 C-39.01 29.875625 -38.02 27.75125 -37 25.5625 C-31.44162051 14.21030564 -23.45481692 5.55494984 -11.375 1.125 C-7.45787921 -0.0522015 -4.06941009 -0.25974958 0 0 Z " fill="#6440DB" transform="translate(660,60)"/>
<path d="M0 0 C7.92 0 15.84 0 24 0 C25 1 25 1 25.12304783 3.13768864 C25.12166514 4.56324149 25.12166514 4.56324149 25.12025452 6.01759338 C25.12162918 7.10439392 25.12300385 8.19119446 25.12442017 9.31092834 C25.12082489 10.51357834 25.11722961 11.71622833 25.11352539 12.95532227 C25.11367142 14.21367889 25.11381744 15.47203552 25.1139679 16.76852417 C25.11425585 20.22911253 25.10835949 23.68966652 25.10139394 27.15024686 C25.09516003 30.76308091 25.09455657 34.37591567 25.09336853 37.98875427 C25.09025532 44.83463508 25.08204208 51.6805 25.07201904 58.5263738 C25.06085757 66.31826589 25.05534737 74.11015873 25.05032361 81.90205681 C25.03985946 97.93471386 25.02226023 113.9673549 25 130 C22.57108818 131.21445591 20.99280557 131.12924198 18.28125 131.1328125 C17.34925781 131.13410156 16.41726563 131.13539063 15.45703125 131.13671875 C14.48121094 131.13285156 13.50539063 131.12898437 12.5 131.125 C11.52417969 131.12886719 10.54835938 131.13273438 9.54296875 131.13671875 C8.14498047 131.13478516 8.14498047 131.13478516 6.71875 131.1328125 C5.86216797 131.13168457 5.00558594 131.13055664 4.12304688 131.12939453 C2 131 2 131 0 130 C0 87.1 0 44.2 0 0 Z " fill="#5C47D6" transform="translate(544,62)"/>
<path d="M0 0 C4.86927937 2.2667335 8.71413148 5.7853287 10.75 10.875 C11.47832574 17.0657688 11.06730088 21.47885842 8 27 C4.3251742 30.6748258 1.12471445 32.99515403 -4 34 C-10.12263548 33.98896822 -15.92066782 33.04595189 -20.44140625 28.57421875 C-24.71581167 23.66656808 -25.35445952 19.79077387 -25.28125 13.50390625 C-24.7247527 8.54953445 -21.97706409 5.86074694 -18.375 2.6875 C-12.81172601 -1.26535257 -6.62407972 -0.54320472 0 0 Z " fill="#5B47D4" transform="translate(563,18)"/>
<path d="M0 0 C7.92 0 15.84 0 24 0 C25.87912514 1.87912514 25.12623495 5.10565818 25.12698364 7.60534668 C25.12854363 8.30378299 25.13010362 9.00221931 25.13171089 9.72182035 C25.13572316 12.07954186 25.13253038 14.43719981 25.12939453 16.79492188 C25.13074847 18.47815489 25.13252836 20.1613876 25.13470459 21.84461975 C25.13927978 26.42919955 25.13748901 31.01375696 25.1343255 35.59833717 C25.13180234 40.38517952 25.13413932 45.17201989 25.13571167 49.9588623 C25.1375335 57.99910834 25.13512672 66.0393452 25.13037109 74.07958984 C25.12492845 83.38916048 25.1266911 92.69870922 25.1321975 102.00827932 C25.13672826 109.9861703 25.13737936 117.96405466 25.13475883 125.94194651 C25.13319585 130.71341212 25.13300285 135.48486743 25.13629532 140.2563324 C25.1391735 144.74107837 25.13719932 149.22579597 25.13140106 153.71053886 C25.13007318 155.36137787 25.13046806 157.01221925 25.13266373 158.66305733 C25.13537413 160.90695544 25.13199548 163.15076118 25.12698364 165.39465332 C25.12660662 166.65344551 25.12622959 167.9122377 25.12584114 169.20917511 C25 172 25 172 24 173 C22.36527118 173.08700342 20.72685945 173.10701063 19.08984375 173.09765625 C18.10048828 173.09443359 17.11113281 173.09121094 16.09179688 173.08789062 C15.05087891 173.07951172 14.00996094 173.07113281 12.9375 173.0625 C11.89271484 173.05798828 10.84792969 173.05347656 9.77148438 173.04882812 C7.1809334 173.03699913 4.59049441 173.02051689 2 173 C2.495 172.01 2.495 172.01 3 171 C9.6 171 16.2 171 23 171 C22.67 114.9 22.34 58.8 22 1 C15.07 1 8.14 1 1 1 C1 23.11 1 45.22 1 68 C0.67 68 0.34 68 0 68 C0 45.56 0 23.12 0 0 Z " fill="#2C7FA4" transform="translate(110,20)"/>
<path d="M0 0 C0.94101562 0.00322266 1.88203125 0.00644531 2.8515625 0.00976562 C3.83640625 0.01814453 4.82125 0.02652344 5.8359375 0.03515625 C6.82851563 0.03966797 7.82109375 0.04417969 8.84375 0.04882812 C11.2995391 0.0606348 13.75520854 0.07710225 16.2109375 0.09765625 C15.8809375 0.75765625 15.5509375 1.41765625 15.2109375 2.09765625 C8.2809375 2.09765625 1.3509375 2.09765625 -5.7890625 2.09765625 C-5.7890625 44.33765625 -5.7890625 86.57765625 -5.7890625 130.09765625 C6.83396282 131.64374133 6.83396282 131.64374133 17.2109375 128.09765625 C17.32462742 125.81989113 17.36783498 123.53859625 17.38452148 121.25805664 C17.3912085 120.54245575 17.39789551 119.82685486 17.40478516 119.08956909 C17.41887229 117.52902517 17.43075456 115.9684602 17.44073296 114.4078846 C17.45712718 111.93081812 17.48037067 109.45390441 17.50563049 106.97691345 C17.57640446 99.93154534 17.63619145 92.88611041 17.68774414 85.84057617 C17.71973871 81.53399584 17.76107922 77.22758361 17.80793953 72.92114067 C17.8238557 71.28548688 17.83622458 69.64979428 17.84484673 68.01408577 C17.89009891 59.54246669 17.99377209 51.34381435 20.2109375 43.09765625 C20.8709375 43.09765625 21.5309375 43.09765625 22.2109375 43.09765625 C22.07014267 43.68719589 21.92934784 44.27673553 21.7842865 44.88414001 C20.05934918 53.01506443 19.91582312 61.00675308 19.90597725 69.27444649 C19.90227139 71.77539898 19.88543893 74.27596971 19.86521912 76.77684021 C19.81015596 83.87792913 19.77895311 90.97906805 19.75463867 98.08032227 C19.73880681 102.44382286 19.70865937 106.80703924 19.66987419 111.17039299 C19.65821137 112.82940609 19.65229373 114.48846978 19.65219307 116.14752388 C19.65200199 118.45485614 19.63381607 120.76139411 19.61157227 123.06860352 C19.60396629 125.03737206 19.60396629 125.03737206 19.59620667 127.0459137 C19.46906784 128.05298874 19.34192902 129.06006378 19.2109375 130.09765625 C15.98354488 132.24925133 15.11175771 132.34606562 11.39453125 132.328125 C10.00137695 132.32522461 10.00137695 132.32522461 8.58007812 132.32226562 C7.61263672 132.31001953 6.64519531 132.29777344 5.6484375 132.28515625 C4.67712891 132.28451172 3.70582031 132.28386719 2.70507812 132.28320312 C-4.50819735 132.23808882 -4.50819735 132.23808882 -6.7890625 131.09765625 C-6.7890625 88.19765625 -6.7890625 45.29765625 -6.7890625 1.09765625 C-4.33631109 -0.12871945 -2.7384844 -0.01649689 0 0 Z " fill="#614ABB" transform="translate(600.7890625,60.90234375)"/>
<path d="M0 0 C1.65 0 3.3 0 5 0 C3.68 0.33 2.36 0.66 1 1 C1 43.24 1 85.48 1 129 C2.65 128.67 4.3 128.34 6 128 C11.94 128.33 17.88 128.66 24 129 C24 86.76 24 44.52 24 1 C24.33 1 24.66 1 25 1 C25 43.57 25 86.14 25 130 C22.57108818 131.21445591 20.99280557 131.12924198 18.28125 131.1328125 C17.34925781 131.13410156 16.41726563 131.13539063 15.45703125 131.13671875 C14.48121094 131.13285156 13.50539063 131.12898437 12.5 131.125 C11.52417969 131.12886719 10.54835938 131.13273438 9.54296875 131.13671875 C8.14498047 131.13478516 8.14498047 131.13478516 6.71875 131.1328125 C5.86216797 131.13168457 5.00558594 131.13055664 4.12304688 131.12939453 C2 131 2 131 0 130 C0 87.1 0 44.2 0 0 Z " fill="#594CB1" transform="translate(544,62)"/>
<path d="M0 0 C0.33 0 0.66 0 1 0 C1.18175781 1.25103516 1.18175781 1.25103516 1.3671875 2.52734375 C2.34461632 9.09115424 3.46783577 15.54302216 5 22 C6.32 22.33 7.64 22.66 9 23 C9 23.99 9 24.98 9 26 C9.99 26.66 10.98 27.32 12 28 C11.67 28.66 11.34 29.32 11 30 C11.804375 30.763125 12.60875 31.52625 13.4375 32.3125 C16 35 16 35 17 38 C17.99 38 18.98 38 20 38 C21.33333333 38 22.66666667 38 24 38 C24.33 38.66 24.66 39.32 25 40 C25.62648438 39.90460938 26.25296875 39.80921875 26.8984375 39.7109375 C27.71570313 39.60007813 28.53296875 39.48921875 29.375 39.375 C30.18710937 39.25898438 30.99921875 39.14296875 31.8359375 39.0234375 C32.55007813 39.01570313 33.26421875 39.00796875 34 39 C34.66 39.66 35.32 40.32 36 41 C34.68 41.66 33.36 42.32 32 43 C32 43.66 32 44.32 32 45 C40.91 45 49.82 45 59 45 C59 45.33 59 45.66 59 46 C44.73317305 48.80807388 28.64646511 48.14998046 16.0234375 40.42578125 C7.98717679 34.76316511 2.53583284 26.77038739 0.33984375 17.08984375 C-0.04653119 13.57694052 -0.095835 10.15850985 -0.0625 6.625 C-0.05347656 5.37976563 -0.04445313 4.13453125 -0.03515625 2.8515625 C-0.02355469 1.91054687 -0.01195312 0.96953125 0 0 Z " fill="#4958BF" transform="translate(402,148)"/>
<path d="M0 0 C11.37358595 8.87139704 17.87727614 21.76478694 20 36 C20.26634462 40.15042197 20.2803297 44.27980328 20.25 48.4375 C20.26160156 50.06848633 20.26160156 50.06848633 20.2734375 51.73242188 C20.27085937 52.76818359 20.26828125 53.80394531 20.265625 54.87109375 C20.26336914 55.80880615 20.26111328 56.74651855 20.25878906 57.71264648 C20 60 20 60 18 62 C14.89582582 62.18848472 11.88146099 62.25160454 8.77685547 62.22705078 C7.8207135 62.22734283 6.86457153 62.22763489 5.87945557 62.22793579 C2.70860828 62.22653876 -0.46200609 62.21095999 -3.6328125 62.1953125 C-5.82713696 62.1915837 -8.02146308 62.1887361 -10.21578979 62.18673706 C-15.99937514 62.17909015 -21.78286049 62.15943259 -27.56640625 62.1373291 C-33.46482999 62.11689343 -39.36326984 62.10774023 -45.26171875 62.09765625 C-56.84118984 62.07618769 -68.42058661 62.04203902 -80 62 C-80 61.67 -80 61.34 -80 61 C-47.99 61 -15.98 61 17 61 C17.70499138 57.47504308 18.12767277 54.86948867 18.1328125 51.390625 C18.13410156 50.55402344 18.13539063 49.71742187 18.13671875 48.85546875 C18.13285156 47.99566406 18.12898438 47.13585937 18.125 46.25 C18.12886719 45.37472656 18.13273437 44.49945313 18.13671875 43.59765625 C18.13542969 42.76621094 18.13414062 41.93476562 18.1328125 41.078125 C18.13112061 39.93972168 18.13112061 39.93972168 18.12939453 38.77832031 C18.19302611 36.97505033 18.19302611 36.97505033 17 36 C16.46329713 33.2307936 16.0351126 30.45054915 15.59765625 27.6640625 C15.12087222 24.7922703 15.12087222 24.7922703 13 22 C13 20.68 13 19.36 13 18 C12.34 18 11.68 18 11 18 C10.505 16.515 10.505 16.515 10 15 C9.34 15 8.68 15 8 15 C8 15.66 8 16.32 8 17 C6.515 16.505 6.515 16.505 5 16 C4.9175 15.071875 4.835 14.14375 4.75 13.1875 C4.29742448 9.91490121 4.29742448 9.91490121 1.9375 8.125 C1.298125 7.75375 0.65875 7.3825 0 7 C0.66 6.01 1.32 5.02 2 4 C1.01 2.02 1.01 2.02 0 0 Z " fill="#3B74AC" transform="translate(258,72)"/>
<path d="M0 0 C9.27119628 2.60752395 16.57304951 12.03665523 21.1875 20.06640625 C22.31324579 22.74546473 22.13046953 25.12967036 22 28 C21.01 28.33 20.02 28.66 19 29 C18.26676204 31.01508358 18.26676204 31.01508358 18 33 C18.825 33.33 19.65 33.66 20.5 34 C21.325 34.66 22.15 35.32 23 36 C23.1875 39.875 23.1875 39.875 23.04296875 42.01953125 C22.9854917 44.66870055 24.00242438 46.56840943 25 49 C25.07646165 51.3320802 25.09143299 53.66845878 25 56 C24.34 56 23.68 56 23 56 C22.86464844 55.05640625 22.72929688 54.1128125 22.58984375 53.140625 C20.69782267 41.85647535 17.57070655 32.21837904 8.1875 24.875 C6.79514736 23.91161659 5.39995065 22.95230859 4 22 C3.34 21.34 2.68 20.68 2 20 C2.99 20 3.98 20 5 20 C5.33 19.34 5.66 18.68 6 18 C6.4125 18.78375 6.825 19.5675 7.25 20.375 C8.94315075 23.38502449 8.94315075 23.38502449 13 25 C13.495 20.545 13.495 20.545 14 16 C12.68 16 11.36 16 10 16 C10.33 14.02 10.66 12.04 11 10 C10.38125 9.731875 9.7625 9.46375 9.125 9.1875 C7 8 7 8 5 5 C3.68 5 2.36 5 1 5 C0.67 3.35 0.34 1.7 0 0 Z " fill="#1C87B2" transform="translate(86,65)"/>
<path d="M0 0 C-1.25477909 3.76433726 -2.91277004 4.16302646 -6.28515625 5.94921875 C-8.43878749 7.26886978 -9.59499224 8.92946225 -11 11 C-11.66 11 -12.32 11 -13 11 C-13 11.99 -13 12.98 -13 14 C-14.65 14.33 -16.3 14.66 -18 15 C-17.835 15.598125 -17.67 16.19625 -17.5 16.8125 C-17 19 -17 19 -17 22 C-15.74055347 25.16072105 -15.74055347 25.16072105 -13 27 C-12.67 26.34 -12.34 25.68 -12 25 C-12 25.99 -12 26.98 -12 28 C-11.01 27.01 -10.02 26.02 -9 25 C-8.34 25.33 -7.68 25.66 -7 26 C-7 26.66 -7 27.32 -7 28 C-6.21625 27.505 -5.4325 27.01 -4.625 26.5 C-2 25 -2 25 0 25 C0.66 23.68 1.32 22.36 2 21 C2.99 21.66 3.98 22.32 5 23 C4.40832031 23.43570313 3.81664062 23.87140625 3.20703125 24.3203125 C-1.50848408 27.87425717 -5.43698017 31.28761893 -9 36 C-11.50237731 35.62276896 -12.71983099 35.30283111 -14.46386719 33.41772461 C-14.90375977 32.75264893 -15.34365234 32.08757324 -15.796875 31.40234375 C-16.28027344 30.68369141 -16.76367188 29.96503906 -17.26171875 29.22460938 C-17.99841797 28.09249023 -17.99841797 28.09249023 -18.75 26.9375 C-19.25660156 26.17888672 -19.76320313 25.42027344 -20.28515625 24.63867188 C-21.53383068 22.76566023 -22.77145051 20.8862482 -24 19 C-19.93798941 11.55734833 -9.2934733 0 0 0 Z " fill="#475AC6" transform="translate(431,66)"/>
<path d="M0 0 C3.44346215 3.38219058 6.73430278 6.83413702 9.875 10.5 C10.67679687 11.4178125 11.47859375 12.335625 12.3046875 13.28125 C14 16 14 16 13.94921875 18.59765625 C10.65751172 26.92851972 2.1176887 32.63614167 -5.375 36.9375 C-6.24125 37.288125 -7.1075 37.63875 -8 38 C-8.66 37.67 -9.32 37.34 -10 37 C-8.3247185 35.14837308 -6.9004312 33.94617903 -4.6875 32.75 C-0.10904824 29.76868257 2.99333075 25.51000388 6 21 C8.625 20.3125 8.625 20.3125 11 20 C10.67 19.01 10.34 18.02 10 17 C9.01 17.33 8.02 17.66 7 18 C7 17.01 7 16.02 7 15 C5.68 15 4.36 15 3 15 C3.33 13.35 3.66 11.7 4 10 C1.53155755 9.2861014 1.53155755 9.2861014 -1 9 C-2.33568021 8.67619874 -3.66923011 8.34342449 -5 8 C-3.62845496 5.04590299 -2.01136276 2.55991624 0 0 Z M-1 16 C-0.01 16.33 0.98 16.66 2 17 C0.02 17.99 0.02 17.99 -2 19 C-1.67 18.01 -1.34 17.02 -1 16 Z " fill="#346EBA" transform="translate(264,151)"/>
<path d="M0 0 C-1.6282396 1.94871851 -2.50910082 2.91117062 -5.05078125 3.37109375 C-6.17033203 3.40396484 -6.17033203 3.40396484 -7.3125 3.4375 C-11.87927692 3.80638343 -14.31541076 5.19650818 -18 8 C-19.22427981 8.63451921 -20.45362376 9.25934985 -21.6875 9.875 C-25.36799496 12.23607224 -26.44676069 13.97985119 -28 18 C-27.34 18 -26.68 18 -26 18 C-27.28299758 20.86207152 -28.530636 23.0245088 -31 25 C-31.99 25 -32.98 25 -34 25 C-34.33 26.32 -34.66 27.64 -35 29 C-35.66 29 -36.32 29 -37 29 C-37.33 31.31 -37.66 33.62 -38 36 C-39.485 36.495 -39.485 36.495 -41 37 C-41.66 36.67 -42.32 36.34 -43 36 C-42.67 24.78 -42.34 13.56 -42 2 C-41.67 2 -41.34 2 -41 2 C-40.67 11.9 -40.34 21.8 -40 32 C-39.01 29.875625 -38.02 27.75125 -37 25.5625 C-31.44162051 14.21030564 -23.45481692 5.55494984 -11.375 1.125 C-7.45787921 -0.0522015 -4.06941009 -0.25974958 0 0 Z " fill="#6440CF" transform="translate(660,60)"/>
<path d="M0 0 C0.66 0 1.32 0 2 0 C2.04254356 1.99954746 2.04080783 4.00041636 2 6 C1 7 1 7 -1.89161682 7.12025452 C-3.18623337 7.11803391 -4.48084991 7.11581329 -5.81469727 7.11352539 C-6.88293228 7.11374443 -6.88293228 7.11374443 -7.9727478 7.1139679 C-10.33733112 7.1132687 -12.70183661 7.10547606 -15.06640625 7.09765625 C-16.70165463 7.09579209 -18.33690357 7.09436818 -19.97215271 7.09336853 C-24.28434785 7.08954318 -28.59650952 7.07971275 -32.90869141 7.06866455 C-37.30565946 7.0584508 -41.70263289 7.05387099 -46.09960938 7.04882812 C-54.73308831 7.03809049 -63.36654 7.02101387 -72 7 C-72.33 6.34 -72.66 5.68 -73 5 C-48.91 5 -24.82 5 0 5 C0 3.35 0 1.7 0 0 Z " fill="#407CAE" transform="translate(253,108)"/>
<path d="M0 0 C0.66 0 1.32 0 2 0 C1.85920517 0.58953964 1.71841034 1.17907928 1.573349 1.78648376 C-0.15158832 9.91740818 -0.29511438 17.90909683 -0.30496025 26.17679024 C-0.30866611 28.67774273 -0.32549857 31.17831346 -0.34571838 33.67918396 C-0.40078154 40.78027288 -0.43198439 47.8814118 -0.45629883 54.98266602 C-0.47213069 59.34616661 -0.50227813 63.70938299 -0.54106331 68.07273674 C-0.55272613 69.73174984 -0.55864377 71.39081353 -0.55874443 73.04986763 C-0.55893551 75.35719989 -0.57712143 77.66373786 -0.59936523 79.97094727 C-0.60697121 81.93971581 -0.60697121 81.93971581 -0.61473083 83.94825745 C-0.74186966 84.95533249 -0.86900848 85.96240753 -1 87 C-4.22739262 89.15159508 -5.09917979 89.24840937 -8.81640625 89.23046875 C-9.74517578 89.22853516 -10.67394531 89.22660156 -11.63085938 89.22460938 C-12.59830078 89.21236328 -13.56574219 89.20011719 -14.5625 89.1875 C-15.53380859 89.18685547 -16.50511719 89.18621094 -17.50585938 89.18554688 C-24.71913485 89.14043257 -24.71913485 89.14043257 -27 88 C-27 83.38 -27 78.76 -27 74 C-26.67 74 -26.34 74 -26 74 C-26 78.29 -26 82.58 -26 87 C-22.35386304 86.85987863 -18.70820211 86.71318602 -15.0625 86.5625 C-14.02158203 86.52318359 -12.98066406 86.48386719 -11.90820312 86.44335938 C-10.91884766 86.40146484 -9.92949219 86.35957031 -8.91015625 86.31640625 C-7.99371338 86.27974854 -7.07727051 86.24309082 -6.13305664 86.20532227 C-4.0179272 86.22996136 -4.0179272 86.22996136 -3 85 C-2.88631008 82.72223488 -2.84310252 80.44094 -2.82641602 78.16040039 C-2.819729 77.4447995 -2.81304199 76.72919861 -2.80615234 75.99191284 C-2.79206521 74.43136892 -2.78018294 72.87080395 -2.77020454 71.31022835 C-2.75381032 68.83316187 -2.73056683 66.35624816 -2.70530701 63.8792572 C-2.63453304 56.83388909 -2.57474605 49.78845416 -2.52319336 42.74291992 C-2.49119879 38.43633959 -2.44985828 34.12992736 -2.40299797 29.82348442 C-2.3870818 28.18783063 -2.37471292 26.55213803 -2.36609077 24.91642952 C-2.32083859 16.44481044 -2.21716541 8.2461581 0 0 Z " fill="#5943B3" transform="translate(621,104)"/>
<path d="M0 0 C0.8971875 0.309375 0.8971875 0.309375 1.8125 0.625 C-0.47035734 8.74182608 -8.0950212 15.49179684 -15.1875 19.625 C-18.79617625 21.16202877 -22.44474777 22.45538993 -26.1875 23.625 C-26.1875 22.965 -26.1875 22.305 -26.1875 21.625 C-23.8775 20.965 -21.5675 20.305 -19.1875 19.625 C-19.1875 18.965 -19.1875 18.305 -19.1875 17.625 C-18.62160156 17.43164062 -18.05570312 17.23828125 -17.47265625 17.0390625 C-16.37244141 16.64847656 -16.37244141 16.64847656 -15.25 16.25 C-14.51910156 15.99476563 -13.78820312 15.73953125 -13.03515625 15.4765625 C-11.00067884 14.77228587 -11.00067884 14.77228587 -10.1875 12.625 C-11.1775 12.295 -12.1675 11.965 -13.1875 11.625 C-12.8575 10.965 -12.5275 10.305 -12.1875 9.625 C-11.1975 9.625 -10.2075 9.625 -9.1875 9.625 C-8.8575 8.635 -8.5275 7.645 -8.1875 6.625 C-7.5275 6.625 -6.8675 6.625 -6.1875 6.625 C-6.084375 5.84125 -5.98125 5.0575 -5.875 4.25 C-4.98283008 0.84353304 -3.65201826 -0.62606027 0 0 Z " fill="#435DBE" transform="translate(389.1875,169.375)"/>
<path d="M0 0 C-0.66 0 -1.32 0 -2 0 C-2 0.66 -2 1.32 -2 2 C-3.98 2 -5.96 2 -8 2 C-8.33 3.98 -8.66 5.96 -9 8 C-11.31 8 -13.62 8 -16 8 C-16.33 8.99 -16.66 9.98 -17 11 C-18.34411332 12.34411332 -19.72034596 13.65678602 -21.125 14.9375 C-23.3363364 16.90540539 -23.3363364 16.90540539 -23 20 C-23.99 20.66 -24.98 21.32 -26 22 C-27.07136051 24.30144109 -28.07989717 26.6340213 -29 29 C-29.33 29 -29.66 29 -30 29 C-29.693032 20.71186409 -26.60094826 14.60714611 -20.73046875 8.7265625 C-15.36115189 4.1774405 -7.32638536 -2.44212845 0 0 Z " fill="#475AB9" transform="translate(433,119)"/>
<path d="M0 0 C4.37327235 0.50852004 7.62824425 1.08388692 11 4 C12.83093385 7.92552217 14 11.65971217 14 16 C14.66 16 15.32 16 16 16 C16.33 16.99 16.66 17.98 17 19 C16.01 19.33 15.02 19.66 14 20 C13.67 20.66 13.34 21.32 13 22 C12.67 22.66 12.34 23.32 12 24 C11.01 24.33 10.02 24.66 9 25 C8.67 25.66 8.34 26.32 8 27 C5.0096192 28.89214361 2.75312922 29.22803321 -0.75 29.125 C-1.54921875 29.10695313 -2.3484375 29.08890625 -3.171875 29.0703125 C-3.77515625 29.04710938 -4.3784375 29.02390625 -5 29 C-2.52038945 27.72756827 -0.10419407 26.64807624 2.5 25.625 C6.47413177 23.77986739 9.02762768 21.94474463 11 18 C11.40075882 12.79013528 11.06111371 9.30469116 8 5 C5.44355903 3.37134037 2.80738491 2.13362336 0 1 C0 0.67 0 0.34 0 0 Z " fill="#5151BA" transform="translate(476,82)"/>
<path d="M0 0 C0 0.33 0 0.66 0 1 C-0.75619629 1.13051758 -1.51239258 1.26103516 -2.29150391 1.39550781 C-5.73875178 1.99902722 -9.18171545 2.62428092 -12.625 3.25 C-13.81480469 3.45496094 -15.00460937 3.65992188 -16.23046875 3.87109375 C-25.17028525 5.51921634 -30.64873 7.27038778 -36 15 C-37.18681726 18.56045177 -37.09689832 21.43808337 -37.0625 25.1875 C-37.05347656 26.45980469 -37.04445313 27.73210937 -37.03515625 29.04296875 C-37.02355469 30.01878906 -37.01195312 30.99460938 -37 32 C-39 30 -39 30 -39.265625 27.20703125 C-39.20820189 14.7318612 -39.20820189 14.7318612 -37 10 C-34.375 8.5625 -34.375 8.5625 -32 8 C-32 7.34 -32 6.68 -32 6 C-28.73815373 3.82543582 -25.74689768 2.91905037 -22 2 C-21.25492187 1.81179687 -20.50984375 1.62359375 -19.7421875 1.4296875 C-13.12091489 -0.08192136 -6.77165418 -0.2094326 0 0 Z " fill="#4C55B3" transform="translate(466,131)"/>
<path d="M0 0 C0 0.33 0 0.66 0 1 C-1.91595968 1.08133791 -3.83291932 1.13934367 -5.75 1.1875 C-7.35101563 1.23970703 -7.35101563 1.23970703 -8.984375 1.29296875 C-12 1 -12 1 -13.78515625 -0.49609375 C-17.43540576 -2.97465823 -21.38945202 -2.3507601 -25.6875 -2.25 C-26.54794922 -2.24484375 -27.40839844 -2.2396875 -28.29492188 -2.234375 C-33.92386365 -2.16650532 -39.41560563 -1.70158551 -45 -1 C-35.89045771 -10.10954229 -10.1554615 -5.19581751 0 0 Z " fill="#2A8BA8" transform="translate(86,64)"/>
<path d="M0 0 C7.77154988 1.74859872 13.0065364 7.05799898 17.25 13.5625 C22.3124546 22.65002097 24.86134521 32.61600491 24 43 C23.67 43 23.34 43 23 43 C23 40.03 23 37.06 23 34 C22.34 34 21.68 34 21 34 C20.91234375 32.85273437 20.8246875 31.70546875 20.734375 30.5234375 C20.1306316 25.73359911 18.42874125 21.89437163 16.25 17.625 C15.91484375 16.91472656 15.5796875 16.20445313 15.234375 15.47265625 C13.14121077 11.2418272 13.14121077 11.2418272 9.296875 8.6484375 C8.53890625 8.43445313 7.7809375 8.22046875 7 8 C6.33333333 6.66666667 5.66666667 5.33333333 5 4 C2.46229997 2.71745356 2.46229997 2.71745356 0 2 C0 1.34 0 0.68 0 0 Z " fill="#683BC1" transform="translate(686,63)"/>
<path d="M0 0 C0.66 0 1.32 0 2 0 C2.66 2.31 3.32 4.62 4 7 C5.65 7 7.3 7 9 7 C9.33 7.99 9.66 8.98 10 10 C9.67 10.66 9.34 11.32 9 12 C10.3303125 12.4021875 10.3303125 12.4021875 11.6875 12.8125 C15 14 15 14 17.5625 15.625 C20.29984674 17.16914432 21.90981733 17.2648728 25 17 C25 17.66 25 18.32 25 19 C25.99 19 26.98 19 28 19 C28 19.99 28 20.98 28 22 C17.98739582 20.52273053 9.39131835 15.74755105 3.08203125 7.7109375 C1.53803525 5.26952866 0.68147254 2.79403741 0 0 Z " fill="#3D67B0" transform="translate(291,109)"/>
<path d="M0 0 C0.33 0 0.66 0 1 0 C1 3.63 1 7.26 1 11 C-5.69829082 13.29655685 -11.87548179 15.00658331 -19 14 C-19.99 13.34 -20.98 12.68 -22 12 C-18.7 12 -15.4 12 -12 12 C-11.67 11.34 -11.34 10.68 -11 10 C-10.34 10 -9.68 10 -9 10 C-7.36323743 8.0399719 -7.36323743 8.0399719 -6 6 C-4.66666667 6.66666667 -3.33333333 7.33333333 -2 8 C-1.34 5.36 -0.68 2.72 0 0 Z " fill="#564CBB" transform="translate(532,180)"/>
<path d="M0 0 C1.32 0.66 2.64 1.32 4 2 C3.01 3.485 3.01 3.485 2 5 C3.65 4.67 5.3 4.34 7 4 C7 4.99 7 5.98 7 7 C-0.09629025 7.31461385 -5.68284595 7.44572039 -12 4 C-11.34 3.67 -10.68 3.34 -10 3 C-9.67 2.34 -9.34 1.68 -9 1 C-7.88625 1.20625 -6.7725 1.4125 -5.625 1.625 C-3.830625 1.810625 -3.830625 1.810625 -2 2 C-1.34 1.34 -0.68 0.68 0 0 Z M6 2 C7.32 2.33 8.64 2.66 10 3 C9.67 3.66 9.34 4.32 9 5 C8.01 4.01 7.02 3.02 6 2 Z " fill="#544BD0" transform="translate(514,186)"/>
<path d="M0 0 C0 0.66 0 1.32 0 2 C-1.7578125 2.94401042 -3.515625 3.88802083 -5.2734375 4.83203125 C-7.30502365 6.04763493 -7.30502365 6.04763493 -9 9 C-11.625 10.1875 -11.625 10.1875 -14 11 C-14 10.34 -14 9.68 -14 9 C-15.17369141 8.92652344 -15.17369141 8.92652344 -16.37109375 8.8515625 C-17.38300781 8.77679688 -18.39492187 8.70203125 -19.4375 8.625 C-20.44683594 8.55539063 -21.45617187 8.48578125 -22.49609375 8.4140625 C-23.32238281 8.27742187 -24.14867188 8.14078125 -25 8 C-25.33 7.34 -25.66 6.68 -26 6 C-24.15535156 5.72736328 -24.15535156 5.72736328 -22.2734375 5.44921875 C-20.64054328 5.19583861 -19.00773519 4.94190292 -17.375 4.6875 C-16.16263672 4.51057617 -16.16263672 4.51057617 -14.92578125 4.33007812 C-9.90889485 3.53471809 -4.69259802 0 0 0 Z " fill="#1C8AAC" transform="translate(92,167)"/>
<path d="M0 0 C0.33 0 0.66 0 1 0 C1.33 9.9 1.66 19.8 2 30 C3.98 25.545 3.98 25.545 6 21 C6.66 21.99 7.32 22.98 8 24 C7.67 24.99 7.34 25.98 7 27 C6.34 27 5.68 27 5 27 C4.67 29.31 4.34 31.62 4 34 C2.515 34.495 2.515 34.495 1 35 C0.34 34.67 -0.32 34.34 -1 34 C-0.67 22.78 -0.34 11.56 0 0 Z " fill="#6047B2" transform="translate(618,62)"/>
<path d="M0 0 C3.41716777 5.12575166 2.45239736 11.47130058 1.6875 17.4375 C0.30991383 24.32543087 -1.58953069 31.69909747 -6.75 36.625 C-7.86375 37.305625 -7.86375 37.305625 -9 38 C-8.71125 37.43410156 -8.4225 36.86820313 -8.125 36.28515625 C-2.31575028 24.48511777 -0.78726744 13.03134788 0 0 Z " fill="#5250B9" transform="translate(489,126)"/>
<path d="M0 0 C6.59722881 -0.47123063 10.56683479 1.9101208 15.75 5.6875 C18.60680466 8.19325167 18.60680466 8.19325167 21 8 C21 9.32 21 10.64 21 12 C23.02045442 11.39816251 25.02111039 10.72693904 27 10 C27.33 9.34 27.66 8.68 28 8 C28.66 8 29.32 8 30 8 C28.62845496 10.95409701 27.01136276 13.44008376 25 16 C21.15150165 14.43209327 18.91061833 11.91061833 16 9 C11.11464345 4.82479553 6.16208955 2.71867804 0 1 C0 0.67 0 0.34 0 0 Z " fill="#445BB1" transform="translate(351,81)"/>
<path d="M0 0 C5.76786681 0.28495424 11.31625679 -0.01152292 17 -1 C16.67 -0.01 16.34 0.98 16 2 C18.97 2.495 18.97 2.495 22 3 C18.98968256 3.93423645 18.13349732 4.04449911 15 3 C13.58952613 2.90826468 12.17517101 2.86933584 10.76171875 2.8671875 C9.94123047 2.86589844 9.12074219 2.86460938 8.27539062 2.86328125 C7.42138672 2.86714844 6.56738281 2.87101562 5.6875 2.875 C4.84509766 2.87113281 4.00269531 2.86726563 3.13476562 2.86328125 C-1.35696895 2.87030507 -5.57962814 3.09140807 -10 4 C-10 3.34 -10 2.68 -10 2 C-6.19864781 -0.93247169 -4.53396237 -1.10830191 0 0 Z " fill="#3374AB" transform="translate(213,79)"/>
<path d="M0 0 C1.12588014 0.95729916 2.2506715 1.91587895 3.375 2.875 C4.00148438 3.40867187 4.62796875 3.94234375 5.2734375 4.4921875 C8.44553996 7.26239463 9.59530781 8.75073201 10 13 C9.0625 15.3125 9.0625 15.3125 8 17 C7.01 16.67 6.02 16.34 5 16 C4.9175 15.071875 4.835 14.14375 4.75 13.1875 C4.29742448 9.91490121 4.29742448 9.91490121 1.9375 8.125 C1.298125 7.75375 0.65875 7.3825 0 7 C0.66 6.01 1.32 5.02 2 4 C1.34 2.68 0.68 1.36 0 0 Z " fill="#3171BF" transform="translate(258,72)"/>
<path d="M0 0 C0.66 0 1.32 0 2 0 C1.83886719 1.05445312 1.67773438 2.10890625 1.51171875 3.1953125 C0.78064878 9.07751441 0.81588265 14.95536677 0.8125 20.875 C0.80025391 21.99519531 0.78800781 23.11539063 0.77539062 24.26953125 C0.76344943 31.09193556 1.34622153 37.37551626 3 44 C0.09351424 42.54675712 -0.61072323 40.92386305 -2 38 C-2.19643002 35.38914779 -2.23973698 33.06049043 -2.109375 30.46875 C-2.08530579 29.75521362 -2.06123657 29.04167725 -2.03643799 28.30651855 C-1.9829735 26.80351299 -1.92201723 25.30075735 -1.85400391 23.79833984 C-1.7503534 21.50780957 -1.66801431 19.21730935 -1.58984375 16.92578125 C-1.53509159 15.46089073 -1.47914198 13.99604437 -1.421875 12.53125 C-1.39575134 11.85090698 -1.36962769 11.17056396 -1.3427124 10.46960449 C-1.17803892 6.88932762 -0.81498845 3.49184742 0 0 Z " fill="#218DA2" transform="translate(28,106)"/>
<path d="M0 0 C2.31 0 4.62 0 7 0 C7 0.66 7 1.32 7 2 C9.475 2.495 9.475 2.495 12 3 C6.15241063 6.89839291 -1.10611082 7.29973431 -8 7 C-7.67 6.34 -7.34 5.68 -7 5 C-4.67843403 4.59270772 -2.3431213 4.25561323 0 4 C0 2.68 0 1.36 0 0 Z " fill="#228BAB" transform="translate(70,188)"/>
<path d="M0 0 C-1.38298622 3.54070083 -2.89671521 6.99141531 -4.5 10.4375 C-6.24124447 14.23844663 -7.80626344 17.9847043 -9 22 C-9.99 21.34 -10.98 20.68 -12 20 C-11.67 19.443125 -11.34 18.88625 -11 18.3125 C-9.8690399 15.69715478 -9.84337026 13.8193354 -10 11 C-9.34 11 -8.68 11 -8 11 C-7.67 9.68 -7.34 8.36 -7 7 C-6.34 7 -5.68 7 -5 7 C-5.33 5.35 -5.66 3.7 -6 2 C-3 0 -3 0 0 0 Z " fill="#2C77AB" transform="translate(188,92)"/>
<path d="M0 0 C0.66 0 1.32 0 2 0 C2 1.32 2 2.64 2 4 C3.65 4 5.3 4 7 4 C5.68 2.68 4.36 1.36 3 0 C4.65 0.33 6.3 0.66 8 1 C8.33 1.99 8.66 2.98 9 4 C10.80252869 4.70194993 10.80252869 4.70194993 13 5 C13.9075 5.185625 14.815 5.37125 15.75 5.5625 C16.4925 5.706875 17.235 5.85125 18 6 C18 6.66 18 7.32 18 8 C11.4 7.34 4.8 6.68 -2 6 C-1.34 4.02 -0.68 2.04 0 0 Z " fill="#1E8AAB" transform="translate(65,75)"/>
<path d="M0 0 C1.00353516 0.54140625 1.00353516 0.54140625 2.02734375 1.09375 C13.53535323 6.65466733 25.79596366 6.55026512 38 3 C36.88574219 4.96459961 36.88574219 4.96459961 35 7 C30.46939576 7.8632168 25.85309348 7.60194183 21.25 7.5625 C19.98671875 7.58634766 18.7234375 7.61019531 17.421875 7.63476562 C10.0099469 7.62308717 5.37340889 7.33318876 0 2 C0 1.34 0 0.68 0 0 Z " fill="#4E55B3" transform="translate(432,168)"/>
<path d="M0 0 C0.33 0.66 0.66 1.32 1 2 C4.02934491 2.65772428 4.02934491 2.65772428 7 3 C7 3.33 7 3.66 7 4 C6.35933594 4.09796875 5.71867187 4.1959375 5.05859375 4.296875 C-0.76971186 5.30445093 -5.14994265 6.56454271 -10 10 C-12.27650826 13.36199564 -12.21169627 16.26197156 -12.125 20.25 C-12.10695313 21.32765625 -12.08890625 22.4053125 -12.0703125 23.515625 C-12.04710937 24.33546875 -12.02390625 25.1553125 -12 26 C-12.66 26 -13.32 26 -14 26 C-14 25.34 -14 24.68 -14 24 C-14.66 23.67 -15.32 23.34 -16 23 C-15.34 23 -14.68 23 -14 23 C-14.11859375 22.41992188 -14.2371875 21.83984375 -14.359375 21.2421875 C-15.094839 16.78527564 -15.35820311 14.67935073 -13.1875 10.5625 C-11 8 -11 8 -9 6 C-8.01 6 -7.02 6 -6 6 C-6 5.34 -6 4.68 -6 4 C-4.35 4 -2.7 4 -1 4 C-0.67 2.68 -0.34 1.36 0 0 Z " fill="#3E63AB" transform="translate(327,77)"/>
<path d="M0 0 C0.99 0.66 1.98 1.32 3 2 C2.40832031 2.43570313 1.81664062 2.87140625 1.20703125 3.3203125 C-3.50848408 6.87425717 -7.43698017 10.28761893 -11 15 C-13.79828356 14.61402985 -14.8205884 14.19863427 -16.75 12.0625 C-18 10 -18 10 -18 8 C-15.03 8.495 -15.03 8.495 -12 9 C-12.99 9.495 -12.99 9.495 -14 10 C-14 10.66 -14 11.32 -14 12 C-13.38125 11.505 -12.7625 11.01 -12.125 10.5 C-10 9 -10 9 -8 9 C-7.67 8.01 -7.34 7.02 -7 6 C-6.195625 5.690625 -5.39125 5.38125 -4.5625 5.0625 C-1.85842507 4.23391841 -1.85842507 4.23391841 -0.6875 1.875 C-0.460625 1.25625 -0.23375 0.6375 0 0 Z " fill="#4856B3" transform="translate(433,87)"/>
<path d="M0 0 C-1.6282396 1.94871851 -2.50910082 2.91117062 -5.05078125 3.37109375 C-6.17033203 3.40396484 -6.17033203 3.40396484 -7.3125 3.4375 C-11.87927692 3.80638343 -14.31541076 5.19650818 -18 8 C-24.30508475 12 -24.30508475 12 -28 12 C-19.82021386 4.68964883 -11.36600847 -1.01031186 0 0 Z " fill="#6445BF" transform="translate(660,60)"/>
<path d="M0 0 C0.66 0.33 1.32 0.66 2 1 C1.01 2.98 0.02 4.96 -1 7 C-1.66 7 -2.32 7 -3 7 C-3.33 15.25 -3.66 23.5 -4 32 C-4.33 32 -4.66 32 -5 32 C-7.14470501 22.79852368 -7.19882773 12.60570547 -3 4 C-1.3125 1.4375 -1.3125 1.4375 0 0 Z " fill="#3E6AAB" transform="translate(295,77)"/>
<path d="M0 0 C0.99 0 1.98 0 3 0 C2.02531845 7.16903932 -2.65289548 12.90258745 -7.9375 17.625 C-8.9584375 18.305625 -8.9584375 18.305625 -10 19 C-9.8125 16.1875 -9.8125 16.1875 -9 13 C-6.4375 11.3125 -6.4375 11.3125 -4 10 C-4 9.01 -4 8.02 -4 7 C-3.34 7 -2.68 7 -2 7 C-1.855625 6.030625 -1.71125 5.06125 -1.5625 4.0625 C-1 1 -1 1 0 0 Z " fill="#326EC4" transform="translate(295,151)"/>
<path d="M0 0 C5.19623022 5.19623022 4.23625951 13.04846508 4.265625 19.890625 C4 23 4 23 2 26 C1.67 22.37 1.34 18.74 1 15 C0.34 15 -0.32 15 -1 15 C-0.83628906 14.45859375 -0.67257812 13.9171875 -0.50390625 13.359375 C0.08590587 10.59777407 0.09609308 8.07181861 0.0625 5.25 C0.05347656 4.26515625 0.04445313 3.2803125 0.03515625 2.265625 C0.02355469 1.51796875 0.01195312 0.7703125 0 0 Z " fill="#4359B5" transform="translate(391,138)"/>
<path d="M0 0 C0 0.33 0 0.66 0 1 C-3.3 1.33 -6.6 1.66 -10 2 C-10 1.34 -10 0.68 -10 0 C-18.91 0 -27.82 0 -37 0 C-37 -0.33 -37 -0.66 -37 -1 C-24.34198651 -2.56824946 -12.5532411 -1.92071449 0 0 Z " fill="#5358B8" transform="translate(484,61)"/>
<path d="M0 0 C0.99 0.33 1.98 0.66 3 1 C-0.28341618 8.32454379 -3.43578217 15.08875712 -10 20 C-10.99 20.33 -11.98 20.66 -13 21 C-13 20.34 -13 19.68 -13 19 C-12.34 19 -11.68 19 -11 19 C-10.67 17.02 -10.34 15.04 -10 13 C-8.02 12.67 -6.04 12.34 -4 12 C-3.855625 11.236875 -3.71125 10.47375 -3.5625 9.6875 C-3 7 -3 7 -2 4 C-1.34 4 -0.68 4 0 4 C0 2.68 0 1.36 0 0 Z " fill="#4C4DBC" transform="translate(485,167)"/>
<path d="M0 0 C-1 3 -1 3 -3.29296875 4.4296875 C-4.24816406 4.90664062 -5.20335937 5.38359375 -6.1875 5.875 C-12.98462581 9.42784267 -18.70065136 13.55097704 -23 20 C-23.33 19.34 -23.66 18.68 -24 18 C-18.63421586 11.35746979 -9.36761505 0 0 0 Z " fill="#4B59B0" transform="translate(431,66)"/>
<path d="M0 0 C10.84272863 0.38449392 21.25642687 2.19944312 30 9 C29.01 9.495 29.01 9.495 28 10 C27.030625 9.401875 26.06125 8.80375 25.0625 8.1875 C20.98729344 5.68895898 16.93957055 5.07702187 12.2578125 4.39453125 C10 4 10 4 9 3 C7.48530552 2.76807135 5.96245438 2.58784762 4.4375 2.4375 C3.61121094 2.35371094 2.78492188 2.26992187 1.93359375 2.18359375 C1.29550781 2.12300781 0.65742188 2.06242187 0 2 C0 1.34 0 0.68 0 0 Z " fill="#475FB2" transform="translate(350,115)"/>
<path d="M0 0 C4.13937592 3.30015998 7.58662205 6.17324411 10 11 C9.01 11.66 8.02 12.32 7 13 C5.66209359 13.99387334 4.32781878 14.9926892 3 16 C2.814375 15.071875 2.814375 15.071875 2.625 14.125 C2.12802644 11.80879168 2.12802644 11.80879168 0 10 C0 9.01 0 8.02 0 7 C1.32 7.33 2.64 7.66 4 8 C4 8.66 4 9.32 4 10 C4.66 9.67 5.32 9.34 6 9 C5.566875 8.51789063 5.13375 8.03578125 4.6875 7.5390625 C4.130625 6.90742188 3.57375 6.27578125 3 5.625 C2.443125 4.99851563 1.88625 4.37203125 1.3125 3.7265625 C0 2 0 2 0 0 Z " fill="#435BC0" transform="translate(381,125)"/>
<path d="M0 0 C0.99 0.33 1.98 0.66 3 1 C2.43410156 1.33773437 1.86820313 1.67546875 1.28515625 2.0234375 C0.55167969 2.46945313 -0.18179688 2.91546875 -0.9375 3.375 C-1.66839844 3.81585938 -2.39929688 4.25671875 -3.15234375 4.7109375 C-5.13772272 5.8773984 -5.13772272 5.8773984 -6 8 C-6.91007812 8.27585937 -7.82015625 8.55171875 -8.7578125 8.8359375 C-12.4756432 10.1707731 -14.18419826 11.77111936 -16.875 14.625 C-18.04675781 15.85089844 -18.04675781 15.85089844 -19.2421875 17.1015625 C-19.82226562 17.72804688 -20.40234375 18.35453125 -21 19 C-21 15.07119214 -19.85810071 14.42532926 -17.125 11.6875 C-11.99314178 6.70203394 -6.37141945 3.18570973 0 0 Z " fill="#288B9F" transform="translate(37,63)"/>
<path d="M0 0 C1.1577506 3.47325181 1.06866652 6.36067448 1 10 C-0.65 10 -2.3 10 -4 10 C-3.34 8.02 -2.68 6.04 -2 4 C-5.63 3.67 -9.26 3.34 -13 3 C-13 2.34 -13 1.68 -13 1 C-11.20843648 0.83222817 -9.4167455 0.66581706 -7.625 0.5 C-6.62726562 0.4071875 -5.62953125 0.314375 -4.6015625 0.21875 C-2 0 -2 0 0 0 Z " fill="#5149B3" transform="translate(531,170)"/>
<path d="M0 0 C1.9375 0.3125 1.9375 0.3125 4 1 C4.33 1.99 4.66 2.98 5 4 C6.051875 3.95875 7.10375 3.9175 8.1875 3.875 C11.79735482 3.9933559 13.89397921 4.22513098 17 6 C18.3125 8.125 18.3125 8.125 19 10 C18.31550781 9.71253906 17.63101562 9.42507812 16.92578125 9.12890625 C8.91416474 6.03764167 0.5716516 3.68573213 -8 3 C-8 2.67 -8 2.34 -8 2 C-5.36 2 -2.72 2 0 2 C0 1.34 0 0.68 0 0 Z " fill="#4565AE" transform="translate(346,133)"/>
<path d="M0 0 C-2.21445873 1.17577214 -4.36779649 2.13083047 -6.734375 2.97265625 C-14.55077687 5.79749579 -19.06417928 9.33664203 -24 16 C-24.33 15.34 -24.66 14.68 -25 14 C-23.91108001 10.73324004 -23.15148744 10.04206152 -20.5625 7.9375 C-18.61446095 6.33921326 -16.78426056 4.78426056 -15 3 C-14.34 3.33 -13.68 3.66 -13 4 C-13 3.34 -13 2.68 -13 2 C-8.50343896 -0.24828052 -4.92127034 -0.16682272 0 0 Z " fill="#6243BF" transform="translate(651,81)"/>
<path d="M0 0 C0.66 0.33 1.32 0.66 2 1 C2.33333333 3 2.66666667 5 3 7 C3.66 7.33 4.32 7.66 5 8 C4.67 9.65 4.34 11.3 4 13 C3.34 12.34 2.68 11.68 2 11 C1.5875 11.969375 1.175 12.93875 0.75 13.9375 C-1 17 -1 17 -3.1875 17.875 C-3.785625 17.91625 -4.38375 17.9575 -5 18 C-3 14 -3 14 -1.96875 12.1875 C-0.84325728 9.64606483 -0.59324494 7.51443591 -0.375 4.75 C-0.26285156 3.41195312 -0.26285156 3.41195312 -0.1484375 2.046875 C-0.09945313 1.37140625 -0.05046875 0.6959375 0 0 Z " fill="#405DB9" transform="translate(369,151)"/>
<path d="M0 0 C1.65 1.65 3.3 3.3 5 5 C4.01 5 3.02 5 2 5 C2 4.34 2 3.68 2 3 C1.01 3.33 0.02 3.66 -1 4 C-2.22520264 7.00847418 -2.22520264 7.00847418 -3 10 C-3.66 10 -4.32 10 -5 10 C-4.67 10.99 -4.34 11.98 -4 13 C-5.3125 14.5 -5.3125 14.5 -7 16 C-7.99 16 -8.98 16 -10 16 C-8.61936434 12.14254559 -6.82183102 9.07512134 -4.4375 5.75 C-3.81746094 4.87859375 -3.19742187 4.0071875 -2.55859375 3.109375 C-1 1 -1 1 0 0 Z " fill="#4166A8" transform="translate(296,148)"/>
<path d="M0 0 C4.91326487 4.64030571 8.93924376 9.47427189 11 16 C11 17.32 11 18.64 11 20 C10.34 20 9.68 20 9 20 C9 18.68 9 17.36 9 16 C8.01 15.67 7.02 15.34 6 15 C6.33 13.35 6.66 11.7 7 10 C6.34 10 5.68 10 5 10 C5 9.34 5 8.68 5 8 C4.34 8 3.68 8 3 8 C3 6.68 3 5.36 3 4 C1.68 3.34 0.36 2.68 -1 2 C-0.67 1.34 -0.34 0.68 0 0 Z " fill="#534EBA" transform="translate(500,70)"/>
<path d="M0 0 C0.33 0 0.66 0 1 0 C1.10957031 0.78761719 1.21914063 1.57523438 1.33203125 2.38671875 C2.36494884 9.48277861 3.72037263 16.37566262 5.51171875 23.3203125 C6 26 6 26 5 29 C4.34510627 27.62929219 3.70155037 26.25316556 3.0625 24.875 C2.70285156 24.10929687 2.34320313 23.34359375 1.97265625 22.5546875 C-0.0279315 17.30013172 -0.11508457 12.19896403 -0.0625 6.625 C-0.05347656 5.37976563 -0.04445313 4.13453125 -0.03515625 2.8515625 C-0.02355469 1.91054687 -0.01195312 0.96953125 0 0 Z " fill="#495CB3" transform="translate(402,148)"/>
<path d="M0 0 C0 0.33 0 0.66 0 1 C-1.98 1 -3.96 1 -6 1 C-6 2.65 -6 4.3 -6 6 C-6.69480469 5.65195313 -7.38960938 5.30390625 -8.10546875 4.9453125 C-11.60891618 3.80113669 -13.72006638 4.16440873 -17.3125 4.875 C-18.38113281 5.07867187 -19.44976562 5.28234375 -20.55078125 5.4921875 C-21.35902344 5.65976563 -22.16726563 5.82734375 -23 6 C-21.49959588 2.99919176 -19.17419354 2.74054675 -16.11328125 1.6640625 C-10.70939148 -0.03401746 -5.60479629 -0.09663442 0 0 Z " fill="#4168B5" transform="translate(333,60)"/>
<path d="M0 0 C0.99 0.33 1.98 0.66 3 1 C-2.92355967 8.04987031 -10.89091619 13.13035511 -20 15 C-20 14.34 -20 13.68 -20 13 C-17.69 12.34 -15.38 11.68 -13 11 C-13 10.34 -13 9.68 -13 9 C-11.783125 8.62875 -10.56625 8.2575 -9.3125 7.875 C-4.74831438 6.19687136 -2.78567004 3.91734849 0 0 Z " fill="#405BAF" transform="translate(383,178)"/>
<path d="M0 0 C9.45454545 2.18181818 9.45454545 2.18181818 12 6 C13.32 6 14.64 6 16 6 C16.33 6.66 16.66 7.32 17 8 C17.99 8.33 18.98 8.66 20 9 C20 9.66 20 10.32 20 11 C13.03339839 9.08166043 6.90131917 6.20351901 1 2 C0.67 1.34 0.34 0.68 0 0 Z " fill="#3079AA" transform="translate(176,180)"/>
<path d="M0 0 C-0.33 1.32 -0.66 2.64 -1 4 C-1.763125 3.79375 -2.52625 3.5875 -3.3125 3.375 C-6.21885944 2.66608797 -6.21885944 2.66608797 -9 5 C-11.1875 5.625 -11.1875 5.625 -13 6 C-13.99 4.35 -14.98 2.7 -16 1 C-14.08351538 0.83125293 -12.16680367 0.66508357 -10.25 0.5 C-9.18265625 0.4071875 -8.1153125 0.314375 -7.015625 0.21875 C-4.6820782 0.04947717 -2.33967818 0 0 0 Z " fill="#3575B0" transform="translate(240,171)"/>
<path d="M0 0 C0.625 3.0625 0.625 3.0625 1 6 C-0.65 6.33 -2.3 6.66 -4 7 C-4.33 6.01 -4.66 5.02 -5 4 C-7.97 3.67 -10.94 3.34 -14 3 C-14 2.67 -14 2.34 -14 2 C-12.04396149 1.47061343 -10.08507711 0.95173199 -8.125 0.4375 C-7.03445313 0.14746094 -5.94390625 -0.14257812 -4.8203125 -0.44140625 C-2 -1 -2 -1 0 0 Z " fill="#4563BA" transform="translate(363,170)"/>
<path d="M0 0 C6.76463575 1.90255381 12.03207449 7.40547148 16 13 C14.35 13 12.7 13 11 13 C10.896875 12.360625 10.79375 11.72125 10.6875 11.0625 C10.460625 10.381875 10.23375 9.70125 10 9 C9.01 8.67 8.02 8.34 7 8 C6.34 7.01 5.68 6.02 5 5 C3.68 5 2.36 5 1 5 C0.67 3.35 0.34 1.7 0 0 Z " fill="#2583A2" transform="translate(86,65)"/>
<path d="M0 0 C2.97 0 5.94 0 9 0 C9.33 0.99 9.66 1.98 10 3 C14.29 3 18.58 3 23 3 C23.33 3.66 23.66 4.32 24 5 C15.60156203 5.31105326 7.89955168 3.91036115 0 1 C0 0.67 0 0.34 0 0 Z " fill="#2B8EAB" transform="translate(36,190)"/>
<path d="M0 0 C6.08589811 2.98084806 9.78971649 6.7275477 14 12 C13.34 13.32 12.68 14.64 12 16 C11.01 16 10.02 16 9 16 C9.37125 14.9171875 9.37125 14.9171875 9.75 13.8125 C10.29707746 10.87172615 10.29707746 10.87172615 8.3125 8.3125 C6.22663681 6.22663681 4.71378237 5.06612879 2 4 C2 3.34 2 2.68 2 2 C1.34 2 0.68 2 0 2 C0 1.34 0 0.68 0 0 Z " fill="#445BAD" transform="translate(375,67)"/>
<path d="M0 0 C0.33 0 0.66 0 1 0 C1.27507657 3.75937983 1.02653185 5.93919783 -0.5 9.4375 C-2.11758193 13.27925709 -2.1614211 15.88376207 -2 20 C-2.33 20.66 -2.66 21.32 -3 22 C-3.66 22 -4.32 22 -5 22 C-4.69121494 14.01790621 -3.06446761 7.36897561 0 0 Z " fill="#2F7EAA" transform="translate(158,96)"/>
<path d="M0 0 C0.99 0.33 1.98 0.66 3 1 C3.75 3 3.75 3 4 5 C3.67 5.33 3.34 5.66 3 6 C0.29891496 5.909084 -2.36930311 5.76259234 -5.0625 5.5625 C-6.20041992 5.48418945 -6.20041992 5.48418945 -7.36132812 5.40429688 C-9.24121722 5.27424165 -11.12065685 5.13771962 -13 5 C-13 4.67 -13 4.34 -13 4 C-12.31292969 3.96261719 -11.62585938 3.92523438 -10.91796875 3.88671875 C-10.01691406 3.82097656 -9.11585938 3.75523438 -8.1875 3.6875 C-7.29417969 3.62949219 -6.40085937 3.57148437 -5.48046875 3.51171875 C-2.69396 2.93686419 -1.75864246 2.1793144 0 0 Z " fill="#3F65B6" transform="translate(347,75)"/>
<path d="M0 0 C0.99 0 1.98 0 3 0 C3 0.99 3 1.98 3 3 C3.61875 3.12375 4.2375 3.2475 4.875 3.375 C7 4 7 4 9 6 C10.68761858 6.60311615 12.40014476 7.13850237 14.125 7.625 C15.03507813 7.88539062 15.94515625 8.14578125 16.8828125 8.4140625 C17.58148437 8.60742188 18.28015625 8.80078125 19 9 C19 9.33 19 9.66 19 10 C12.00020713 9.54890224 6.56292013 8.83270119 1.625 3.375 C0 1 0 1 0 0 Z " fill="#594AB8" transform="translate(540,42)"/>
<path d="M0 0 C0.77772405 2.33317216 1.42415568 4.61435923 2 7 C3.65 7.33 5.3 7.66 7 8 C6.79375 8.598125 6.5875 9.19625 6.375 9.8125 C5.69328085 12.28450846 5.69328085 12.28450846 8 15 C4.91306296 13.64147869 2.91358266 12.15489047 0.6875 9.625 C0.15511719 9.03976563 -0.37726563 8.45453125 -0.92578125 7.8515625 C-2 6 -2 6 -1.73046875 3.8984375 C-1 2 -1 2 0 0 Z " fill="#3D6AAD" transform="translate(285,164)"/>
<path d="M0 0 C1.299375 0.2475 1.299375 0.2475 2.625 0.5 C5.81225199 0.97218548 8.78485027 1.07655118 12 1 C12 2.32 12 3.64 12 5 C12.99 5.33 13.98 5.66 15 6 C9.13190493 5.47606294 4.45126259 4.23891142 -1 2 C-0.67 1.34 -0.34 0.68 0 0 Z " fill="#3C69B3" transform="translate(309,187)"/>
<path d="M0 0 C0.78503906 0.13277344 1.57007813 0.26554687 2.37890625 0.40234375 C7.91187987 1.33242643 13.44073841 2.24191887 19 3 C19 3.66 19 4.32 19 5 C16.03 5 13.06 5 10 5 C10 4.34 10 3.68 10 3 C7.69 3.33 5.38 3.66 3 4 C2.01 2.68 1.02 1.36 0 0 Z " fill="#4165B0" transform="translate(325,110)"/>
<path d="M0 0 C8.75119617 -0.44497608 8.75119617 -0.44497608 13 3 C14.9504644 4.92417782 16.39572902 6.73514686 18 9 C17.67 9.99 17.34 10.98 17 12 C15.8553125 10.39125 15.8553125 10.39125 14.6875 8.75 C10.73023028 4.04895428 5.76065307 2.65029385 0 1 C0 0.67 0 0.34 0 0 Z " fill="#6341BB" transform="translate(664,81)"/>
<path d="M0 0 C0.66 0.33 1.32 0.66 2 1 C2 1.99 2 2.98 2 4 C1.34 4 0.68 4 0 4 C-0.33 5.32 -0.66 6.64 -1 8 C-2.32 8 -3.64 8 -5 8 C-5 8.66 -5 9.32 -5 10 C-5.66 10 -6.32 10 -7 10 C-6.67 9.01 -6.34 8.02 -6 7 C-5.34 7 -4.68 7 -4 7 C-3.896875 6.21625 -3.79375 5.4325 -3.6875 4.625 C-3 2 -3 2 0 0 Z " fill="#4260CB" transform="translate(387,169)"/>
<path d="M0 0 C3.96 0 7.92 0 12 0 C9.07089056 1.95273962 6.91867709 2.75396363 3.5625 3.6875 C2.61503906 3.95949219 1.66757812 4.23148438 0.69140625 4.51171875 C-1.98918237 4.99803744 -3.46287583 4.89369149 -6 4 C-4.7934375 3.566875 -4.7934375 3.566875 -3.5625 3.125 C-0.8673532 2.26737432 -0.8673532 2.26737432 0 0 Z " fill="#5253B8" transform="translate(472,126)"/>
<path d="M0 0 C1.16045027 3.91651967 1.03629578 7.51187292 0.9375 11.5625 C0.99685074 13.87717903 1.34466777 15.78825372 2 18 C1.01 18.33 0.02 18.66 -1 19 C-2 18 -2 18 -2.1875 14.5625 C-2.14224957 9.57590257 -1.11167934 4.84374568 0 0 Z " fill="#1F98B1" transform="translate(4,103)"/>
<path d="M0 0 C0.99 0.495 0.99 0.495 2 1 C1.67 1.66 1.34 2.32 1 3 C2.32 3 3.64 3 5 3 C6.08209949 6.24629847 5.78140875 6.87436498 5 10 C5.33 10.99 5.66 11.98 6 13 C5.34 13 4.68 13 4 13 C2.5393715 10.35261084 2 9.10551666 2 6 C1.34 6 0.68 6 0 6 C0 4.02 0 2.04 0 0 Z " fill="#356CC0" transform="translate(291,103)"/>
<path d="M0 0 C0 0.66 0 1.32 0 2 C-6.45478287 5.82260707 -10.57544389 7.78739314 -18 6 C-18 5.67 -18 5.34 -18 5 C-17.18015625 4.80664062 -16.3603125 4.61328125 -15.515625 4.4140625 C-14.43796875 4.15367187 -13.3603125 3.89328125 -12.25 3.625 C-10.64898437 3.24214844 -10.64898437 3.24214844 -9.015625 2.8515625 C-5.93187876 1.98076369 -3.17018656 0 0 0 Z " fill="#2B87A4" transform="translate(92,167)"/>
<path d="M0 0 C0.99 0.86625 1.98 1.7325 3 2.625 C6.86190708 5.94197541 10.89447006 8.99283262 15 12 C14.01 12.66 13.02 13.32 12 14 C12 13.34 12 12.68 12 12 C11.443125 11.773125 10.88625 11.54625 10.3125 11.3125 C7.3530491 9.63281165 5.33873216 7.45866715 3 5 C2.401875 4.443125 1.80375 3.88625 1.1875 3.3125 C0 2 0 2 0 0 Z " fill="#3E67A7" transform="translate(301,154)"/>
<path d="M0 0 C1.13199353 0.9080162 2.25532363 1.82683826 3.375 2.75 C4.00148438 3.26046875 4.62796875 3.7709375 5.2734375 4.296875 C7.08312318 6.08199481 8.00117455 7.67949644 9 10 C8.401875 9.649375 7.80375 9.29875 7.1875 8.9375 C4.89186786 7.66695302 4.89186786 7.66695302 2 9 C1.34 8.34 0.68 7.68 0 7 C0.66 6.01 1.32 5.02 2 4 C1.34 2.68 0.68 1.36 0 0 Z " fill="#356BAD" transform="translate(258,72)"/>
<path d="M0 0 C3.93673644 1.31224548 6.22719294 2.91910327 9 6 C6.36 6 3.72 6 1 6 C1 5.34 1 4.68 1 4 C0.34 4 -0.32 4 -1 4 C-0.67 2.68 -0.34 1.36 0 0 Z " fill="#3670B3" transform="translate(249,66)"/>
<path d="M0 0 C5.28 0.66 10.56 1.32 16 2 C14.68 2.99 13.36 3.98 12 5 C8.5625 4.25 8.5625 4.25 5 3 C3.33753959 2.64628502 1.67225729 2.30404678 0 2 C0 1.34 0 0.68 0 0 Z " fill="#2D75AA" transform="translate(206,171)"/>
<path d="M0 0 C0 3 0 3 -2.375 5.6875 C-5 8 -5 8 -7 8 C-7.33 9.65 -7.66 11.3 -8 13 C-8.99 13 -9.98 13 -11 13 C-9.63422544 8.71506993 -7.79318655 6.56854295 -4.375 3.6875 C-3.55773437 2.99011719 -2.74046875 2.29273437 -1.8984375 1.57421875 C-0.95871094 0.79498047 -0.95871094 0.79498047 0 0 Z " fill="#1693A5" transform="translate(22,75)"/>
<path d="M0 0 C0.598125 0.804375 1.19625 1.60875 1.8125 2.4375 C3.80947276 5.22327984 3.80947276 5.22327984 7 6 C8.39712274 7.95597184 9.73779907 9.95436401 11 12 C10.67 12.66 10.34 13.32 10 14 C9.34 13.113125 8.68 12.22625 8 11.3125 C4.92337269 7.57976197 1.18067901 5.34449989 -3 3 C-2.01 2.67 -1.02 2.34 0 2 C0 1.34 0 0.68 0 0 Z " fill="#2B82A3" transform="translate(91,83)"/>
<path d="M0 0 C1.25541557 3.76624671 0.37061958 5.37188934 -1 9 C-1.99 8.67 -2.98 8.34 -4 8 C-3.67 5.69 -3.34 3.38 -3 1 C-2.01 0.67 -1.02 0.34 0 0 Z " fill="#584BD6" transform="translate(531,180)"/>
<path d="M0 0 C2.66666667 2.66666667 5.33333333 5.33333333 8 8 C7.67 8.66 7.34 9.32 7 10 C5.29115995 8.37660195 3.62553283 6.70680947 2 5 C2 4.34 2 3.68 2 3 C1.01 3 0.02 3 -1 3 C-1.33 3.99 -1.66 4.98 -2 6 C-2.66 5.67 -3.32 5.34 -4 5 C-2.68 3.35 -1.36 1.7 0 0 Z " fill="#3E68A3" transform="translate(264,151)"/>
<path d="M0 0 C0.99 0.33 1.98 0.66 3 1 C2.79375 1.556875 2.5875 2.11375 2.375 2.6875 C1.89304789 5.659538 2.73434972 7.31979941 4 10 C1.525 9.01 1.525 9.01 -1 8 C-1.04241723 5.66705225 -1.04092937 3.33297433 -1 1 C-0.67 0.67 -0.34 0.34 0 0 Z " fill="#1F81B8" transform="translate(154,130)"/>
<path d="M0 0 C0.33 0.66 0.66 1.32 1 2 C1.99 2.33 2.98 2.66 4 3 C3.67 3.66 3.34 4.32 3 5 C0.03 5 -2.94 5 -6 5 C-6 4.34 -6 3.68 -6 3 C-5.195625 2.690625 -4.39125 2.38125 -3.5625 2.0625 C-1.10919595 1.23664655 -1.10919595 1.23664655 0 0 Z " fill="#673ECC" transform="translate(660,76)"/>
<path d="M0 0 C0 0.66 0 1.32 0 2 C-0.99 2 -1.98 2 -3 2 C-3.33 2.66 -3.66 3.32 -4 4 C-6.97 4 -9.94 4 -13 4 C-9.38656695 0.38656695 -4.97659681 -0.29274099 0 0 Z " fill="#4D57B6" transform="translate(447,61)"/>
<path d="M0 0 C0 1.65 0 3.3 0 5 C-3.96 5 -7.92 5 -12 5 C-12 4.67 -12 4.34 -12 4 C-9.69 4 -7.38 4 -5 4 C-5 3.34 -5 2.68 -5 2 C-2 0 -2 0 0 0 Z " fill="#3B1AE8" transform="translate(709,188)"/>
<path d="M0 0 C0.556875 0.28875 1.11375 0.5775 1.6875 0.875 C3.98635455 2.05918647 3.98635455 2.05918647 6.5 2.8125 C9.61865884 4.29386295 11.02218922 6.21641446 13 9 C8.10352881 8.24669674 4.25284703 5.50341644 1.125 1.75 C0.75375 1.1725 0.3825 0.595 0 0 Z " fill="#4B57B3" transform="translate(412,182)"/>
<path d="M0 0 C0.99 0.33 1.98 0.66 3 1 C1.75443908 1.81928886 0.50333365 2.63015186 -0.75 3.4375 C-1.44609375 3.88996094 -2.1421875 4.34242188 -2.859375 4.80859375 C-4.92957014 5.9608009 -6.68696324 6.54676982 -9 7 C-8.67 6.01 -8.34 5.02 -8 4 C-5.625 2.9375 -5.625 2.9375 -3 2 C-2.01 1.34 -1.02 0.68 0 0 Z " fill="#356FAC" transform="translate(263,182)"/>
<path d="M0 0 C3.43600559 5.15400839 4.24403837 8.77702167 4 15 C3.34 15 2.68 15 2 15 C1.66223316 13.2508503 1.32996329 11.50063855 1 9.75 C0.814375 8.77546875 0.62875 7.8009375 0.4375 6.796875 C0 4 0 4 0 0 Z " fill="#2F84A6" transform="translate(107,106)"/>
<path d="M0 0 C0.1546875 0.86625 0.1546875 0.86625 0.3125 1.75 C1.09792798 4.32049158 2.30504197 5.93657284 4 8 C0.86650268 9.04449911 0.01031744 8.93423645 -3 8 C-1.125 1.125 -1.125 1.125 0 0 Z " fill="#1997AB" transform="translate(10,88)"/>
<path d="M0 0 C1.4835001 0.42257276 2.96176424 0.86356322 4.4375 1.3125 C5.67306641 1.67794922 5.67306641 1.67794922 6.93359375 2.05078125 C7.61550781 2.36402344 8.29742187 2.67726562 9 3 C9.33 3.99 9.66 4.98 10 6 C10.99 6 11.98 6 13 6 C13 6.66 13 7.32 13 8 C7.73691968 6.58795406 4.2437012 4.31008693 0 1 C0 0.67 0 0.34 0 0 Z " fill="#3F69A8" transform="translate(293,179)"/>
<path d="M0 0 C1.41778293 2.83556587 0.86257622 4.9908706 0.5625 8.125 C0.46066406 9.22070312 0.35882813 10.31640625 0.25390625 11.4453125 C0.17011719 12.28835937 0.08632813 13.13140625 0 14 C-2 12 -2 12 -3 9 C-2.0625 5.8125 -2.0625 5.8125 -1 3 C-1.66 2.67 -2.32 2.34 -3 2 C-2.01 1.34 -1.02 0.68 0 0 Z M-5 3 C-4.34 3 -3.68 3 -3 3 C-3.33 3.66 -3.66 4.32 -4 5 C-4.33 4.34 -4.66 3.68 -5 3 Z " fill="#4352C3" transform="translate(427,146)"/>
<path d="M0 0 C2.31 0 4.62 0 7 0 C6.34 1.98 5.68 3.96 5 6 C4.01 5.67 3.02 5.34 2 5 C2 4.01 2 3.02 2 2 C1.34 1.34 0.68 0.68 0 0 Z " fill="#198CA7" transform="translate(56,172)"/>
<path d="M0 0 C-2.96283313 2.38672669 -5.94270509 4.7353371 -9 7 C-8.67 5.02 -8.34 3.04 -8 1 C-5.07175348 0.02391783 -3.04386724 -0.08226668 0 0 Z " fill="#2E77A9" transform="translate(198,85)"/>
<path d="M0 0 C0.33 0 0.66 0 1 0 C1.05391993 1.79133978 1.09275571 3.58313899 1.125 5.375 C1.14820313 6.37273437 1.17140625 7.37046875 1.1953125 8.3984375 C1 11 1 11 -1 13 C-2.12758089 9.61725734 -1.81750262 8.23221777 -1.0625 4.8125 C-0.86785156 3.91144531 -0.67320312 3.01039063 -0.47265625 2.08203125 C-0.23869141 1.05142578 -0.23869141 1.05142578 0 0 Z " fill="#4358C1" transform="translate(392,157)"/>
<path d="M0 0 C0 3 0 3 -1.625 5.0625 C-4.31458222 7.25663287 -6.67331292 8.09272171 -10 9 C-6.83047153 5.73991357 -3.60062011 2.77762123 0 0 Z " fill="#3B6CA9" transform="translate(258,159)"/>
<path d="M0 0 C0 0.66 0 1.32 0 2 C-1.65 2.33 -3.3 2.66 -5 3 C-5 2.34 -5 1.68 -5 1 C-6.32 0.67 -7.64 0.34 -9 0 C-5.93109813 -1.53445094 -3.29905734 -0.54984289 0 0 Z " fill="#3478B0" transform="translate(206,62)"/>
<path d="M0 0 C2.5 2.3125 2.5 2.3125 5 5 C5 5.99 5 6.98 5 8 C4.01 7.67 3.02 7.34 2 7 C2 6.34 2 5.68 2 5 C1.34 5 0.68 5 0 5 C-0.5625 3.0625 -0.5625 3.0625 -1 1 C-0.67 0.67 -0.34 0.34 0 0 Z " fill="#5550D6" transform="translate(496,178)"/>
<path d="M0 0 C0.99 0.33 1.98 0.66 3 1 C1.02 5.455 1.02 5.455 -1 10 C-1.33 10 -1.66 10 -2 10 C-2 8.02 -2 6.04 -2 4 C-1.34 4 -0.68 4 0 4 C0 2.68 0 1.36 0 0 Z " fill="#5152B4" transform="translate(485,167)"/>
<path d="M0 0 C0.66 0 1.32 0 2 0 C2 3.3 2 6.6 2 10 C1.01 10.495 1.01 10.495 0 11 C-0.66 10.34 -1.32 9.68 -2 9 C-1.67 8.443125 -1.34 7.88625 -1 7.3125 C0.1309601 4.69715478 0.15662974 2.8193354 0 0 Z " fill="#207AAD" transform="translate(178,103)"/>
<path d="M0 0 C3 1 3 1 4.75 3.6875 C6.14124787 7.37430684 5.98410592 9.24250465 5 13 C4.67 13 4.34 13 4 13 C3.79503906 12.31292969 3.59007812 11.62585938 3.37890625 10.91796875 C3.10949219 10.01691406 2.84007812 9.11585937 2.5625 8.1875 C2.16224609 6.84751953 2.16224609 6.84751953 1.75390625 5.48046875 C1.19612127 3.64526945 0.60655425 1.81966274 0 0 Z " fill="#376FA8" transform="translate(248,95)"/>
<path d="M0 0 C0.33 0 0.66 0 1 0 C1.268125 0.969375 1.53625 1.93875 1.8125 2.9375 C2.204375 3.948125 2.59625 4.95875 3 6 C3.99 6.33 4.98 6.66 6 7 C5.01 7.99 4.02 8.98 3 10 C2.01 9.67 1.02 9.34 0 9 C0 6.03 0 3.06 0 0 Z " fill="#5E3CCC" transform="translate(617,87)"/>
<path d="M0 0 C0.66 0.33 1.32 0.66 2 1 C1.3125 3.4375 1.3125 3.4375 0 6 C-2.625 6.8125 -2.625 6.8125 -5 7 C-3.70700306 4.11562221 -2.34058637 2.12780579 0 0 Z " fill="#5648B9" transform="translate(545,20)"/>
<path d="M0 0 C0.66 0 1.32 0 2 0 C2.33 0.99 2.66 1.98 3 3 C1.6875 4.5 1.6875 4.5 0 6 C-0.99 6 -1.98 6 -3 6 C-1.125 1.125 -1.125 1.125 0 0 Z " fill="#366AB2" transform="translate(289,158)"/>
<path d="M0 0 C2.12038635 2.61514317 4.13091744 5.19637616 6 8 C5.01 8.33 4.02 8.66 3 9 C0.70620251 5.55930376 0 4.27709699 0 0 Z " fill="#198C9E" transform="translate(32,153)"/>
<path d="M0 0 C0.99 0.495 0.99 0.495 2 1 C3.1577506 4.47325181 3.06866652 7.36067448 3 11 C0.60236815 8.60236815 0.65719414 7.66726502 0.375 4.375 C0.30023438 3.55773437 0.22546875 2.74046875 0.1484375 1.8984375 C0.09945312 1.27195313 0.05046875 0.64546875 0 0 Z " fill="#2D80A9" transform="translate(154,142)"/>
<path d="M0 0 C2.39073445 3.82517513 2.55966552 7.59665524 3 12 C0.70423322 9.70423322 -0.0638375 8.09653751 -1 5 C-0.625 2.1875 -0.625 2.1875 0 0 Z " fill="#3075A6" transform="translate(178,137)"/>
<path d="M0 0 C3 0 3 0 6 1 C5.67 1.99 5.34 2.98 5 4 C2.4375 5.1875 2.4375 5.1875 0 6 C0 4.02 0 2.04 0 0 Z " fill="#3371C0" transform="translate(271,108)"/>
<path d="M0 0 C0.66 0 1.32 0 2 0 C4 3 4 3 3.625 5.1875 C3.41875 5.785625 3.2125 6.38375 3 7 C2.01 6.67 1.02 6.34 0 6 C0 4.02 0 2.04 0 0 Z " fill="#1D81B8" transform="translate(162,90)"/>
<path d="M0 0 C-3.1254959 2.64465038 -6.08788267 3.84414715 -10 5 C-9 2 -9 2 -7.25 0.8125 C-4.70039426 -0.10819096 -2.69076919 -0.14948718 0 0 Z " fill="#4A54B7" transform="translate(446,83)"/>
<path d="M0 0 C4.7517398 0.43197635 6.92000054 1.32769295 10 5 C5.75354935 5 3.61475228 3.18249194 0 1 C0 0.67 0 0.34 0 0 Z " fill="#3E5DB1" transform="translate(355,137)"/>
<path d="M0 0 C0.66 0.99 1.32 1.98 2 3 C-1 5 -1 5 -3.6875 4.625 C-4.450625 4.41875 -5.21375 4.2125 -6 4 C-3.94766315 1.7522025 -2.99332739 0.9977758 0 0 Z " fill="#5452DA" transform="translate(484,108)"/>
<path d="M0 0 C0.66 0.33 1.32 0.66 2 1 C2 1.66 2 2.32 2 3 C2.66 3.33 3.32 3.66 4 4 C2.35 5.65 0.7 7.3 -1 9 C-1 7.35 -1 5.7 -1 4 C-0.34 4 0.32 4 1 4 C0.67 2.68 0.34 1.36 0 0 Z " fill="#1D8CA4" transform="translate(34,90)"/>
<path d="M0 0 C3.82097239 0.53069061 6.06171403 1.49701566 9 4 C6.03 3.67 3.06 3.34 0 3 C0 2.01 0 1.02 0 0 Z " fill="#4460B6" transform="translate(365,63)"/>
<path d="M0 0 C0.33 0 0.66 0 1 0 C1 2.31 1 4.62 1 7 C-0.65 7 -2.3 7 -4 7 C-3.34 5.68 -2.68 4.36 -2 3 C-1.34 3.33 -0.68 3.66 0 4 C0 2.68 0 1.36 0 0 Z " fill="#574DBB" transform="translate(531,173)"/>
<path d="M0 0 C1.32 0.33 2.64 0.66 4 1 C3.67 1.99 3.34 2.98 3 4 C1.35 4 -0.3 4 -2 4 C-1.34 2.68 -0.68 1.36 0 0 Z " fill="#346FC7" transform="translate(290,168)"/>
<path d="M0 0 C0.33 0 0.66 0 1 0 C1 1.98 1 3.96 1 6 C-0.65 6.66 -2.3 7.32 -4 8 C-2.66666667 5.33333333 -1.33333333 2.66666667 0 0 Z " fill="#4760AF" transform="translate(368,161)"/>
<path d="M0 0 C2.31 0 4.62 0 7 0 C5.875 1.5 5.875 1.5 4 3 C0.8125 3.1875 0.8125 3.1875 -2 3 C-1.34 2.67 -0.68 2.34 0 2 C0 1.34 0 0.68 0 0 Z " fill="#6943CA" transform="translate(653,60)"/>
<path d="M0 0 C0.99 0 1.98 0 3 0 C2.67 1.65 2.34 3.3 2 5 C1.01 5 0.02 5 -1 5 C-0.67 3.35 -0.34 1.7 0 0 Z " fill="#188BB5" transform="translate(89,178)"/>
<path d="M0 0 C0.99 0 1.98 0 3 0 C2.75 2.375 2.75 2.375 2 5 C-0.0625 6.3125 -0.0625 6.3125 -2 7 C-2 6.34 -2 5.68 -2 5 C-1.34 4.67 -0.68 4.34 0 4 C0 2.68 0 1.36 0 0 Z " fill="#2089BA" transform="translate(161,154)"/>
<path d="M0 0 C2.32472205 2.85306797 3.7508258 5.54074837 5 9 C2 8 2 8 0 5 C-0.125 2.3125 -0.125 2.3125 0 0 Z " fill="#2F75A5" transform="translate(181,149)"/>
<path d="M0 0 C0.99 0.33 1.98 0.66 3 1 C3 1.99 3 2.98 3 4 C1.35 4 -0.3 4 -2 4 C-2 3.01 -2 2.02 -2 1 C-1.34 0.67 -0.68 0.34 0 0 Z " fill="#465AC7" transform="translate(421,123)"/>
<path d="M0 0 C2.50037734 2.17424117 3.43628586 3.73045798 4 7 C2.35 6.67 0.7 6.34 -1 6 C-0.67 4.02 -0.34 2.04 0 0 Z " fill="#2383A3" transform="translate(104,82)"/>
<path d="M0 0 C1 3 1 3 0.0625 5.1875 C-0.4634375 6.0846875 -0.4634375 6.0846875 -1 7 C-1.66 6.67 -2.32 6.34 -3 6 C-3 3 -3 3 -1.5 1.3125 C-0.7575 0.6628125 -0.7575 0.6628125 0 0 Z " fill="#3962B9" transform="translate(299,72)"/>
<path d="M0 0 C1.65 0.33 3.3 0.66 5 1 C5 1.99 5 2.98 5 4 C2.03 3.505 2.03 3.505 -1 3 C-0.67 2.01 -0.34 1.02 0 0 Z " fill="#198AB5" transform="translate(88,69)"/>
</svg>
